<svg width="24" height="24" viewBox="0 0 24 24" fill="none" xmlns="http://www.w3.org/2000/svg">
<g clip-path="url(#clip0_1818_454)">
<path fill-rule="evenodd" clip-rule="evenodd" d="M12 22.8C17.9647 22.8 22.8 17.9648 22.8 12C22.8 6.03533 17.9648 1.19997 12 1.19997C6.03533 1.19997 1.19997 6.03533 1.19997 12C1.19997 17.9647 6.03533 22.8 12 22.8ZM12 24C18.6273 24 24 18.6273 24 12C24 5.37253 18.6273 0 12 0C5.37253 0 0 5.37253 0 12C0 18.6273 5.37253 24 12 24Z" fill="#2196F3"/>
<path fill-rule="evenodd" clip-rule="evenodd" d="M16.8 11.9999C16.8 12.159 16.7367 12.3116 16.6242 12.4241C16.5117 12.5366 16.3591 12.5998 16.2 12.5999H7.79994C7.64081 12.5999 7.4882 12.5367 7.37568 12.4241C7.26316 12.3116 7.19995 12.159 7.19995 11.9999C7.19995 11.8408 7.26316 11.6882 7.37568 11.5756C7.4882 11.4631 7.64081 11.3999 7.79994 11.3999H16.1999C16.359 11.3999 16.5116 11.4632 16.6242 11.5757C16.7367 11.6882 16.7999 11.8408 16.8 11.9999Z" fill="#2196F3"/>
<path fill-rule="evenodd" clip-rule="evenodd" d="M12 16.8002C11.8409 16.8002 11.6883 16.737 11.5758 16.6245C11.4633 16.512 11.4001 16.3594 11.4 16.2003V7.80018C11.4 7.64106 11.4632 7.48845 11.5758 7.37593C11.6883 7.26341 11.8409 7.2002 12 7.2002C12.1591 7.2002 12.3117 7.26341 12.4243 7.37593C12.5368 7.48845 12.6 7.64106 12.6 7.80018V16.2001C12.6 16.3593 12.5367 16.5119 12.4242 16.6244C12.3117 16.7369 12.1591 16.8002 12 16.8002Z" fill="#2196F3"/>
</g>
<defs>
<clipPath id="clip0_1818_454">
<rect width="24" height="24" fill="white"/>
</clipPath>
</defs>
</svg>
