<svg width="32" height="32" viewBox="0 0 32 32" fill="none" xmlns="http://www.w3.org/2000/svg">
<rect width="32" height="32" rx="16" fill="#EFF2FA"/>
<path d="M12.2996 11.2458L10.0792 18.1734C10.066 18.2119 10.0622 18.253 10.068 18.2932C10.0738 18.3335 10.089 18.3718 10.1125 18.4051C10.136 18.4383 10.167 18.4655 10.203 18.4844C10.2391 18.5033 10.2791 18.5134 10.3198 18.5138H10.9415C10.997 18.5137 11.0509 18.4956 11.0953 18.4622C11.1396 18.4289 11.172 18.3821 11.1876 18.3288L11.5354 17.2186H14.5755L14.5329 17.1502L14.9141 18.3288C14.9297 18.3821 14.9621 18.4289 15.0064 18.4622C15.0508 18.4956 15.1047 18.5137 15.1602 18.5138H15.7819C15.8226 18.5141 15.8628 18.5046 15.8992 18.4863C15.9356 18.468 15.9671 18.4413 15.9911 18.4084C16.0151 18.3755 16.031 18.3374 16.0374 18.2972C16.0438 18.257 16.0406 18.2158 16.028 18.1771L13.8076 11.2495C13.7918 11.1964 13.7593 11.1497 13.715 11.1164C13.6707 11.0831 13.6169 11.0649 13.5615 11.0645H12.5401C12.4861 11.0656 12.4337 11.0837 12.3906 11.1162C12.3474 11.1488 12.3155 11.1941 12.2996 11.2458ZM11.9055 16.1084L13.0508 12.5429L14.2054 16.1084H11.9055Z" fill="#373839"/>
<path d="M18.5717 11.0669H17.9796C17.8366 11.0669 17.7206 11.1829 17.7206 11.3259V18.2535C17.7206 18.3966 17.8366 18.5126 17.9796 18.5126H18.5717C18.7148 18.5126 18.8308 18.3966 18.8308 18.2535V11.3259C18.8308 11.1829 18.7148 11.0669 18.5717 11.0669Z" fill="#373839"/>
<path d="M15.5486 21.2889H10.1641C9.76369 21.2889 9.37966 21.1299 9.0965 20.8467C8.81335 20.5636 8.65427 20.1795 8.65427 19.7791V10.2166C8.65427 9.81619 8.81335 9.43215 9.0965 9.149C9.37966 8.86584 9.76369 8.70677 10.1641 8.70677H19.7266C20.127 8.70677 20.5111 8.86584 20.7942 9.149C21.0774 9.43215 21.2364 9.81619 21.2364 10.2166V14.9979C21.2398 15.0988 21.2829 15.1943 21.3564 15.2636C21.4299 15.3329 21.5277 15.3704 21.6287 15.3679C21.9438 15.367 22.2548 15.4392 22.5372 15.5789C22.5958 15.6089 22.6613 15.6233 22.7271 15.6205C22.7929 15.6178 22.8569 15.598 22.9128 15.5632C22.9688 15.5283 23.0147 15.4796 23.0461 15.4217C23.0776 15.3638 23.0935 15.2987 23.0923 15.2328V10.2166C23.0923 9.7749 23.0052 9.3375 22.836 8.92946C22.6668 8.52142 22.4188 8.15075 22.1062 7.83866C21.7936 7.52656 21.4225 7.27917 21.0142 7.11063C20.6059 6.9421 20.1683 6.85572 19.7266 6.85645H10.1641C9.27296 6.85645 8.41828 7.21047 7.78813 7.84062C7.15797 8.47078 6.80396 9.32545 6.80396 10.2166V19.7791C6.80396 20.6703 7.15797 21.5249 7.78813 22.1551C8.41828 22.7852 9.27296 23.1393 10.1641 23.1393H16.3257C16.4014 23.1394 16.4754 23.117 16.5385 23.075C16.6015 23.0331 16.6507 22.9734 16.6798 22.9035C16.7089 22.8336 16.7166 22.7566 16.702 22.6823C16.6874 22.6081 16.6511 22.5398 16.5977 22.4861C16.3098 22.2219 16.0766 21.9038 15.9112 21.5498C15.8847 21.4745 15.8357 21.409 15.7709 21.3624C15.706 21.3157 15.6284 21.2901 15.5486 21.2889Z" fill="#373839"/>
<path d="M23.7769 21.9924L25.4532 21.3319C25.4878 21.3182 25.5174 21.2945 25.5382 21.2638C25.5591 21.2331 25.5703 21.1969 25.5703 21.1598C25.5703 21.1227 25.5591 21.0864 25.5382 21.0557C25.5174 21.025 25.4878 21.0013 25.4532 20.9877L23.7769 20.3271C23.4801 20.2098 23.2106 20.0328 22.9849 19.8072C22.7593 19.5815 22.5823 19.312 22.465 19.0153L21.8044 17.35C21.7907 17.3155 21.767 17.286 21.7363 17.2652C21.7056 17.2445 21.6694 17.2334 21.6323 17.2334C21.5953 17.2334 21.5591 17.2445 21.5284 17.2652C21.4977 17.286 21.474 17.3155 21.4603 17.35L20.7997 19.0153C20.6826 19.3122 20.5058 19.5819 20.2801 19.8075C20.0544 20.0332 19.7847 20.2101 19.4878 20.3271L17.8225 20.9877C17.788 21.0013 17.7584 21.025 17.7375 21.0557C17.7167 21.0864 17.7055 21.1227 17.7055 21.1598C17.7055 21.1969 17.7167 21.2331 17.7375 21.2638C17.7584 21.2945 17.788 21.3182 17.8225 21.3319L19.4878 21.9924C19.7847 22.1095 20.0544 22.2863 20.2801 22.512C20.5058 22.7377 20.6826 23.0074 20.7997 23.3043L21.4603 24.9696C21.4737 25.0044 21.4973 25.0343 21.528 25.0554C21.5587 25.0765 21.5951 25.0879 21.6323 25.088C21.6696 25.0879 21.706 25.0765 21.7367 25.0554C21.7674 25.0343 21.791 25.0044 21.8044 24.9696L22.465 23.3043C22.5823 23.0075 22.7593 22.738 22.9849 22.5124C23.2106 22.2867 23.4801 22.1098 23.7769 21.9924Z" fill="#373839"/>
</svg>
