<svg width="20" height="20" viewBox="0 0 20 20" fill="none" xmlns="http://www.w3.org/2000/svg">
<g clip-path="url(#clip0_1411_15754)">
<path d="M9.41406 6.68208V4.62064C8.37137 3.41587 6.76738 2.78036 5.1557 2.78036C3.41777 2.78036 1.66289 3.47649 0.361133 4.68751H0.585938C3.6141 4.68751 6.68121 5.38052 9.41406 6.68208ZM10.5859 6.68208C13.3188 5.38052 16.3859 4.68751 19.4141 4.68751H19.6389C18.3371 3.47649 16.5822 2.78036 14.8443 2.78036C13.2326 2.78036 11.6286 3.41587 10.5859 4.62064V6.68208ZM0.585938 17.6172C5.57949 17.6172 9.12945 19.8961 9.41406 20V7.98048C9.12949 7.87661 5.57953 5.85938 0.585938 5.85938C0.257773 5.85938 0 6.11716 0 6.44532V17.0313C0 17.3594 0.257773 17.6172 0.585938 17.6172ZM10 2.34376C10.3239 2.34376 10.5859 2.08169 10.5859 1.75782V0.585947C10.5859 0.26208 10.3239 9.76957e-06 10 9.76957e-06C9.67613 9.76957e-06 9.41406 0.26208 9.41406 0.585947V1.75782C9.41406 2.08169 9.67613 2.34376 10 2.34376ZM7.24199 2.17208C7.47086 2.40095 7.84168 2.40095 8.07055 2.17208C8.29941 1.94321 8.29941 1.57239 8.07055 1.34353L6.89867 0.17165C6.6698 -0.0572168 6.29898 -0.0572168 6.07012 0.17165C5.84125 0.400518 5.84125 0.771338 6.07012 1.00021L7.24199 2.17208ZM12.758 2.17208L13.9299 1.00021C14.1588 0.771338 14.1588 0.400518 13.9299 0.17165C13.701 -0.0572168 13.3302 -0.0572168 13.1013 0.17165L11.9295 1.34353C11.7006 1.57239 11.7006 1.94321 11.9295 2.17208C12.1583 2.40095 12.5291 2.40099 12.758 2.17208ZM19.4141 5.85938C14.5709 5.85938 11.3939 7.68563 10.5859 7.98048V20C10.8705 19.8961 14.4205 17.6172 19.4141 17.6172C19.7422 17.6172 20 17.3594 20 17.0313V6.44532C20 6.11716 19.7422 5.85938 19.4141 5.85938ZM17.6875 11.3125C17.0664 11.3828 16.4688 11.4883 15.8594 11.6172V15.2734C15.8594 15.6016 15.6016 15.8594 15.2734 15.8594C14.9453 15.8594 14.6875 15.6016 14.6875 15.2734V11.9219C14.1602 12.0625 13.6445 12.2266 13.1406 12.4258C12.8359 12.5312 12.4961 12.379 12.3789 12.0742C12.2617 11.7813 12.4141 11.4414 12.7188 11.3242C13.3633 11.0781 14.0195 10.8789 14.6875 10.7031V9.41407C14.6875 9.08591 14.9453 8.82813 15.2734 8.82813C15.6016 8.82813 15.8594 9.08591 15.8594 9.41407V10.4219C16.4178 10.3054 16.9808 10.2116 17.5469 10.1406C17.8633 10.1055 18.1563 10.3398 18.2031 10.6563C18.2383 10.9727 18.0039 11.2657 17.6875 11.3125Z" fill="#171717"/>
</g>
<defs>
<clipPath id="clip0_1411_15754">
<rect width="20" height="20" fill="white"/>
</clipPath>
</defs>
</svg>
