<svg width="13" height="13" viewBox="0 0 13 13" fill="none" xmlns="http://www.w3.org/2000/svg">
<path d="M11.2944 4.38772V2.81439C11.2944 2.46077 11.1539 2.12163 10.9039 1.87158C10.6538 1.62153 10.3147 1.48106 9.96106 1.48106H8.42106L7.32772 0.387724C7.07791 0.139389 6.73997 0 6.38772 0C6.03548 0 5.69754 0.139389 5.44772 0.387724L4.38772 1.48106H2.81439C2.46077 1.48106 2.12163 1.62153 1.87158 1.87158C1.62153 2.12163 1.48106 2.46077 1.48106 2.81439V4.38772L0.387724 5.44772C0.139389 5.69754 0 6.03548 0 6.38772C0 6.73997 0.139389 7.07791 0.387724 7.32772L1.48106 8.42106V9.96106C1.48106 10.3147 1.62153 10.6538 1.87158 10.9039C2.12163 11.1539 2.46077 11.2944 2.81439 11.2944H4.38772L5.44772 12.3877C5.69754 12.6361 6.03548 12.7754 6.38772 12.7754C6.73997 12.7754 7.07791 12.6361 7.32772 12.3877L8.42106 11.2944H9.96106C10.3147 11.2944 10.6538 11.1539 10.9039 10.9039C11.1539 10.6538 11.2944 10.3147 11.2944 9.96106V8.42106L12.3877 7.32772C12.6361 7.07791 12.7754 6.73997 12.7754 6.38772C12.7754 6.03548 12.6361 5.69754 12.3877 5.44772L11.2944 4.38772Z" fill="#2196F3"/>
<path d="M5.88698 8.05439C5.79924 8.0549 5.71227 8.03808 5.63104 8.00491C5.54982 7.97173 5.47594 7.92285 5.41365 7.86106L4.38698 6.86106C4.26144 6.73553 4.19092 6.56526 4.19092 6.38773C4.19092 6.21019 4.26144 6.03993 4.38698 5.91439C4.51251 5.78886 4.68278 5.71833 4.86031 5.71833C5.03785 5.71833 5.20811 5.78886 5.33365 5.91439L5.86031 6.44773L7.38698 4.91439C7.51252 4.78179 7.68559 4.70448 7.86812 4.69948C8.05066 4.69448 8.2277 4.76219 8.36031 4.88773C8.49292 5.01326 8.57023 5.18634 8.57523 5.36887C8.58023 5.55141 8.51252 5.72845 8.38698 5.86106L6.38698 7.86106C6.32156 7.92614 6.24333 7.97692 6.15727 8.0102C6.0712 8.04348 5.97916 8.05853 5.88698 8.05439Z" fill="white"/>
</svg>
