<svg width="15" height="15" viewBox="0 0 15 15" fill="none" xmlns="http://www.w3.org/2000/svg">
<path d="M5.25 10.625L7.5 8.375L9.75 10.625L10.625 9.75L8.375 7.5L10.625 5.25L9.75 4.375L7.5 6.625L5.25 4.375L4.375 5.25L6.625 7.5L4.375 9.75L5.25 10.625ZM7.5 13.75C6.63542 13.75 5.82292 13.5858 5.0625 13.2575C4.30208 12.9292 3.64063 12.484 3.07813 11.9219C2.51563 11.3598 2.07042 10.6983 1.7425 9.9375C1.41458 9.17667 1.25042 8.36417 1.25 7.5C1.24958 6.63583 1.41375 5.82333 1.7425 5.0625C2.07125 4.30167 2.51646 3.64021 3.07813 3.07813C3.63979 2.51604 4.30125 2.07083 5.0625 1.7425C5.82375 1.41417 6.63625 1.25 7.5 1.25C8.36375 1.25 9.17625 1.41417 9.9375 1.7425C10.6988 2.07083 11.3602 2.51604 11.9219 3.07813C12.4835 3.64021 12.929 4.30167 13.2581 5.0625C13.5873 5.82333 13.7513 6.63583 13.75 7.5C13.7488 8.36417 13.5846 9.17667 13.2575 9.9375C12.9304 10.6983 12.4852 11.3598 11.9219 11.9219C11.3585 12.484 10.6971 12.9294 9.9375 13.2581C9.17792 13.5869 8.36542 13.7508 7.5 13.75ZM7.5 12.5C8.89583 12.5 10.0781 12.0156 11.0469 11.0469C12.0156 10.0781 12.5 8.89583 12.5 7.5C12.5 6.10417 12.0156 4.92187 11.0469 3.95312C10.0781 2.98437 8.89583 2.5 7.5 2.5C6.10417 2.5 4.92188 2.98437 3.95313 3.95312C2.98438 4.92187 2.5 6.10417 2.5 7.5C2.5 8.89583 2.98438 10.0781 3.95313 11.0469C4.92188 12.0156 6.10417 12.5 7.5 12.5Z" fill="black"/>
</svg>
