<svg width="32" height="32" viewBox="0 0 32 32" fill="none" xmlns="http://www.w3.org/2000/svg">
<rect width="32" height="32" rx="16" fill="#EFF2FA"/>
<g clip-path="url(#clip0_1334_12957)">
<path d="M19.6919 14.8139C19.6919 14.4048 19.3603 14.0732 18.9513 14.0732H11.3227C10.9136 14.0732 10.582 14.4048 10.582 14.8139C10.582 15.2229 10.9136 15.5545 11.3227 15.5545H18.9513C19.3603 15.5545 19.6919 15.2229 19.6919 14.8139ZM11.3227 17.0358C10.9136 17.0358 10.582 17.3674 10.582 17.7764C10.582 18.1855 10.9136 18.5171 11.3227 18.5171H15.9558C16.3648 18.5171 16.6964 18.1855 16.6964 17.7764C16.6964 17.3674 16.3648 17.0358 15.9558 17.0358H11.3227Z" fill="#373839"/>
<path d="M13.0633 24.1461H10.5862C9.76944 24.1461 9.10494 23.4816 9.10494 22.6648V9.62956C9.10494 8.81278 9.76944 8.14827 10.5862 8.14827H19.692C20.5088 8.14827 21.1733 8.81278 21.1733 9.62956V14.1845C21.1733 14.5936 21.5049 14.9251 21.9139 14.9251C22.323 14.9251 22.6546 14.5936 22.6546 14.1845V9.62956C22.6546 7.996 21.3256 6.66699 19.692 6.66699H10.5862C8.95266 6.66699 7.62366 7.996 7.62366 9.62956V22.6648C7.62366 24.2984 8.95266 25.6274 10.5862 25.6274H13.0633C13.4723 25.6274 13.8039 25.2958 13.8039 24.8868C13.8039 24.4777 13.4723 24.1461 13.0633 24.1461Z" fill="#373839"/>
<path d="M23.9663 17.39C23.1 16.5236 21.6904 16.5236 20.8247 17.3894L16.7584 21.4466C16.6721 21.5328 16.6084 21.6389 16.5729 21.7556L15.6873 24.671C15.6488 24.7979 15.645 24.9328 15.6764 25.0616C15.7078 25.1905 15.7733 25.3085 15.8659 25.4035C15.9585 25.4984 16.0749 25.5667 16.2029 25.6013C16.331 25.6358 16.4659 25.6354 16.5937 25.6L19.5832 24.7719C19.7062 24.7379 19.8183 24.6726 19.9087 24.5824L23.9664 20.5323C24.8327 19.6659 24.8327 18.2564 23.9663 17.39ZM19 23.3964L17.4961 23.813L17.9362 22.364L20.6799 19.6264L21.7275 20.674L19 23.3964ZM22.9195 19.4844L22.776 19.6276L21.7285 18.5802L21.8715 18.4374C22.1603 18.1487 22.6302 18.1487 22.919 18.4374C23.2077 18.7262 23.2077 19.1961 22.9195 19.4844ZM18.9513 11.1104H11.3227C10.9136 11.1104 10.582 11.4419 10.582 11.851C10.582 12.26 10.9136 12.5916 11.3227 12.5916H18.9513C19.3603 12.5916 19.6919 12.26 19.6919 11.851C19.6919 11.4419 19.3603 11.1104 18.9513 11.1104Z" fill="#373839"/>
</g>
<defs>
<clipPath id="clip0_1334_12957">
<rect width="18.9604" height="18.9604" fill="white" transform="translate(6.63947 6.66699)"/>
</clipPath>
</defs>
</svg>
