<svg width="24" height="24" viewBox="0 0 24 24" fill="none" xmlns="http://www.w3.org/2000/svg">
<g clip-path="url(#clip0_1304_12395)">
<path d="M21.3751 4.19995H20.6251C20.1278 4.19995 19.6509 4.3975 19.2993 4.74913C18.9476 5.10076 18.7501 5.57767 18.7501 6.07495V7.19995H23.2501V6.07495C23.2501 5.57767 23.0525 5.10076 22.7009 4.74913C22.3493 4.3975 21.8724 4.19995 21.3751 4.19995ZM18.7501 19.65C18.7501 19.7924 18.7876 19.9274 18.8626 20.0474L20.3626 22.4474C20.4976 22.6649 20.7376 22.7999 21.0001 22.7999C21.2626 22.7999 21.5026 22.6649 21.6376 22.4474L23.1376 20.0474C23.2126 19.9274 23.2501 19.7924 23.2501 19.65V8.69995H18.7501V19.65ZM6.82508 12.0525L9.14258 13.2224L11.4601 12.0525C12.3301 11.61 12.8926 10.6275 12.8926 9.55495V5.27995C11.2801 5.12995 9.78758 4.53745 9.14258 4.25245C8.49758 4.53745 7.00508 5.12995 5.39258 5.27995V9.55495C5.39258 10.6275 5.95508 11.61 6.82508 12.0525ZM6.69008 7.71745C6.75946 7.64792 6.84188 7.59276 6.93261 7.55513C7.02334 7.51749 7.1206 7.49812 7.21883 7.49812C7.31705 7.49812 7.41432 7.51749 7.50505 7.55513C7.59578 7.59276 7.67819 7.64792 7.74758 7.71745L8.78258 8.75245L10.5601 7.15495C10.633 7.08856 10.7185 7.03737 10.8114 7.0044C10.9044 6.97142 11.003 6.95731 11.1014 6.9629C11.1999 6.96849 11.2963 6.99366 11.3849 7.03694C11.4735 7.08021 11.5526 7.14073 11.6176 7.21495C11.8951 7.52245 11.8726 7.99495 11.5576 8.27245L9.24758 10.35C9.10508 10.4775 8.92508 10.545 8.74508 10.545C8.55008 10.545 8.36258 10.47 8.21258 10.3275L6.67508 8.78995C6.60555 8.72057 6.55039 8.63815 6.51275 8.54742C6.47512 8.45669 6.45575 8.35943 6.45575 8.2612C6.45575 8.16297 6.47512 8.06571 6.51275 7.97498C6.55039 7.88425 6.60555 7.80184 6.67508 7.73245L6.69008 7.71745Z" fill="#1F1F1F"/>
<path d="M15.645 0.75H2.625C2.12772 0.75 1.65081 0.947544 1.29917 1.29917C0.947544 1.65081 0.75 2.12772 0.75 2.625V21.375C0.75 21.8723 0.947544 22.3492 1.29917 22.7008C1.65081 23.0525 2.12772 23.25 2.625 23.25H15.645C16.1423 23.25 16.6192 23.0525 16.9708 22.7008C17.3225 22.3492 17.52 21.8723 17.52 21.375V2.625C17.52 2.12772 17.3225 1.65081 16.9708 1.29917C16.6192 0.947544 16.1423 0.75 15.645 0.75ZM3.885 4.5675C3.885 4.155 4.2225 3.8175 4.635 3.8175C6.66 3.8175 8.775 2.7675 8.7975 2.76C9.0075 2.655 9.255 2.655 9.465 2.76C9.4875 2.7675 11.6175 3.8175 13.6275 3.8175C14.04 3.8175 14.3775 4.155 14.3775 4.5675V9.555C14.3775 11.19 13.4925 12.6975 12.12 13.3875L9.465 14.73C9.36 14.7825 9.24 14.8125 9.1275 14.8125C9.015 14.8125 8.895 14.7825 8.79 14.73L6.135 13.3875C4.7625 12.69 3.8775 11.19 3.8775 9.555V4.5675H3.885ZM4.26 16.5675H5.07C5.4825 16.5675 5.82 16.905 5.82 17.3175C5.82 17.73 5.4825 18.0675 5.07 18.0675H4.26C3.8475 18.0675 3.51 17.73 3.51 17.3175C3.51 16.905 3.8475 16.5675 4.26 16.5675ZM14.01 21.315H4.26C3.8475 21.315 3.51 20.9775 3.51 20.565C3.51 20.1525 3.8475 19.815 4.26 19.815H14.01C14.4225 19.815 14.76 20.1525 14.76 20.565C14.76 20.9775 14.4225 21.315 14.01 21.315ZM14.01 18.0675H7.5075C7.095 18.0675 6.7575 17.73 6.7575 17.3175C6.7575 16.905 7.095 16.5675 7.5075 16.5675H14.01C14.4225 16.5675 14.76 16.905 14.76 17.3175C14.76 17.73 14.4225 18.0675 14.01 18.0675Z" fill="#1F1F1F"/>
</g>
<defs>
<clipPath id="clip0_1304_12395">
<rect width="24" height="24" fill="white"/>
</clipPath>
</defs>
</svg>
