<svg width="18" height="18" viewBox="0 0 18 18" fill="none" xmlns="http://www.w3.org/2000/svg">
<path d="M15.7501 8.62502C15.7527 9.61492 15.5214 10.5914 15.0751 11.475C14.5459 12.5338 13.7324 13.4244 12.7257 14.047C11.719 14.6696 10.5588 14.9996 9.37512 15C8.38522 15.0026 7.40871 14.7713 6.52512 14.325L2.25012 15.75L3.67512 11.475C3.22882 10.5914 2.99754 9.61492 3.00012 8.62502C3.00058 7.44134 3.33058 6.28116 3.95316 5.27443C4.57574 4.26771 5.46631 3.4542 6.52512 2.92502C7.40871 2.47872 8.38522 2.24744 9.37512 2.25002H9.75012C11.3134 2.33627 12.7899 2.99609 13.897 4.10317C15.0041 5.21024 15.6639 6.68676 15.7501 8.25002V8.62502Z" stroke="#919191" stroke-width="1.5" stroke-linecap="round" stroke-linejoin="round"/>
</svg>
