<svg width="20" height="20" viewBox="0 0 20 20" fill="none" xmlns="http://www.w3.org/2000/svg">
<path d="M5 17.4609V8.71094C5 8.3724 4.88281 8.08594 4.64844 7.85156C4.41406 7.61719 4.11458 7.5 3.75 7.5H1.25C0.885417 7.5 0.585938 7.61719 0.351562 7.85156C0.117188 8.08594 0 8.3724 0 8.71094V17.4219C0 17.7865 0.117188 18.0729 0.351562 18.2812C0.585938 18.5156 0.885417 18.6328 1.25 18.6328H3.75C4.11458 18.6589 4.41406 18.5677 4.64844 18.3594C4.88281 18.125 5 17.8255 5 17.4609ZM20 8.75C19.974 8.22917 19.7917 7.78646 19.4531 7.42188C19.0885 7.08333 18.6458 6.90104 18.125 6.875H12.4219C12.8646 6.11979 13.1901 5.39062 13.3984 4.6875C13.6328 3.95833 13.75 3.4375 13.75 3.125C13.75 2.65625 13.5807 2.22656 13.2422 1.83594C12.9036 1.47135 12.4349 1.27604 11.8359 1.25C11.2109 1.25 10.7812 1.41927 10.5469 1.75781C10.3125 2.09635 10.1172 2.53906 9.96094 3.08594C9.80469 3.63281 9.57031 4.21875 9.25781 4.84375C8.91927 5.49479 8.35938 6.14583 7.57812 6.79688L6.95312 7.30469C6.48438 7.69531 6.25 8.17708 6.25 8.75V15C6.27604 15.625 6.52344 16.1198 6.99219 16.4844L8.32031 17.5C9.4401 18.3333 10.6901 18.75 12.0703 18.75H14.375C14.8958 18.724 15.3385 18.5417 15.7031 18.2031C16.0417 17.8385 16.224 17.3958 16.25 16.875C16.25 16.7448 16.237 16.6016 16.2109 16.4453C17.0182 16.1589 17.4479 15.5729 17.5 14.6875C17.5 14.3229 17.4089 13.9974 17.2266 13.7109C17.6693 13.6328 18.0339 13.4245 18.3203 13.0859C18.6068 12.7474 18.75 12.3438 18.75 11.875C18.75 11.3802 18.5807 10.9635 18.2422 10.625C18.737 10.5729 19.1536 10.3776 19.4922 10.0391C19.8307 9.70052 20 9.27083 20 8.75Z" fill="#ADADAD"/>
</svg>
