<svg width="18" height="18" viewBox="0 0 18 18" fill="none" xmlns="http://www.w3.org/2000/svg">
<g clip-path="url(#clip0_1372_12002)">
<path d="M6.57639 0.751221C5.77135 0.751221 5.06694 1.22035 4.72394 1.89783C4.62433 2.07 4.59719 2.27468 4.64849 2.46685C4.69979 2.65902 4.82533 2.82295 4.99749 2.92256C5.16965 3.02217 5.37433 3.04931 5.5665 2.99802C5.75868 2.94672 5.9226 2.82118 6.02221 2.64902C6.09308 2.40807 6.30568 2.24791 6.57497 2.24791H15.1739C15.5055 2.24791 15.7493 2.49169 15.7493 2.82476V11.4237C15.7532 11.5421 15.7189 11.6586 15.6516 11.7561C15.5842 11.8536 15.4873 11.9269 15.3751 11.9651C15.2856 12.0122 15.2064 12.0768 15.1425 12.1553C15.0785 12.2337 15.0311 12.3242 15.003 12.4214C14.9749 12.5186 14.9667 12.6205 14.9789 12.7209C14.9912 12.8214 15.0236 12.9183 15.0742 13.0059C15.1249 13.0935 15.1927 13.17 15.2736 13.2307C15.3545 13.2915 15.4469 13.3353 15.5451 13.3594C15.6434 13.3836 15.7455 13.3877 15.8454 13.3714C15.9453 13.3552 16.0408 13.3189 16.1263 13.2648C16.791 12.9175 17.2502 12.2188 17.2502 11.4237V2.82476C17.2502 1.68665 16.3106 0.751221 15.1739 0.751221H6.57639ZM2.82615 4.50287C1.68946 4.50287 0.749771 5.43831 0.749771 6.575V15.1753C0.749771 16.3134 1.68946 17.2489 2.82615 17.2489H11.4236C12.5617 17.2489 13.5014 16.3134 13.5014 15.1753V6.57642C13.5014 5.43972 12.5617 4.50429 11.4236 4.50429L2.82615 4.50287ZM2.82615 5.99957H11.4236C11.7567 5.99957 12.0005 6.24335 12.0005 6.575V15.1753C12.0028 15.2517 11.9895 15.3278 11.9614 15.3988C11.9332 15.4699 11.8908 15.5344 11.8368 15.5885C11.7827 15.6425 11.7182 15.6849 11.6471 15.7131C11.5761 15.7412 11.5 15.7545 11.4236 15.7522H2.82615C2.74987 15.7543 2.67396 15.7409 2.60308 15.7126C2.53219 15.6844 2.46783 15.642 2.41394 15.5879C2.36005 15.5339 2.31777 15.4694 2.2897 15.3985C2.26163 15.3275 2.24837 15.2516 2.25072 15.1753V6.57642C2.25072 6.24476 2.4945 6.00099 2.82615 6.00099V5.99957Z" fill="#94A3B8"/>
</g>
<defs>
<clipPath id="clip0_1372_12002">
<rect width="18" height="18" fill="white"/>
</clipPath>
</defs>
</svg>
