<svg width="14" height="15" viewBox="0 0 14 15" fill="none" xmlns="http://www.w3.org/2000/svg">
<path d="M0.365333 0.398211C0.599327 0.143236 0.916647 0 1.24751 0C1.57838 0 1.8957 0.143236 2.1297 0.398211L6.54185 5.20743L10.954 0.398211C11.1893 0.150462 11.5045 0.0133749 11.8317 0.0164737C12.1589 0.0195725 12.4718 0.16261 12.7032 0.414778C12.9345 0.666947 13.0657 1.00807 13.0686 1.36468C13.0714 1.72128 12.9457 2.06484 12.7184 2.32135L8.30621 7.13057L12.7184 11.9398C12.9457 12.1963 13.0714 12.5399 13.0686 12.8965C13.0657 13.2531 12.9345 13.5942 12.7032 13.8464C12.4718 14.0985 12.1589 14.2416 11.8317 14.2447C11.5045 14.2478 11.1893 14.1107 10.954 13.8629L6.54185 9.05371L2.1297 13.8629C1.89436 14.1107 1.57917 14.2478 1.252 14.2447C0.924841 14.2416 0.611882 14.0985 0.380533 13.8464C0.149184 13.5942 0.0179566 13.2531 0.0151136 12.8965C0.0122706 12.5399 0.13804 12.1963 0.365333 11.9398L4.77749 7.13057L0.365333 2.32135C0.13141 2.0663 0 1.72042 0 1.35978C0 0.999139 0.13141 0.653262 0.365333 0.398211Z" fill="white"/>
</svg>
