<svg width="15" height="15" viewBox="0 0 15 15" fill="none" xmlns="http://www.w3.org/2000/svg">
<path d="M4.375 13.125C4.03125 13.125 3.73709 13.0027 3.4925 12.7581C3.24792 12.5135 3.12542 12.2192 3.125 11.875V3.75C2.94792 3.75 2.79959 3.69 2.68 3.57C2.56042 3.45 2.50042 3.30167 2.5 3.125C2.49959 2.94833 2.55959 2.8 2.68 2.68C2.80042 2.56 2.94875 2.5 3.125 2.5H5.625C5.625 2.32292 5.685 2.17458 5.805 2.055C5.925 1.93542 6.07334 1.87542 6.25 1.875H8.75C8.92709 1.875 9.07563 1.935 9.19563 2.055C9.31563 2.175 9.37542 2.32333 9.375 2.5H11.875C12.0521 2.5 12.2006 2.56 12.3206 2.68C12.4406 2.8 12.5004 2.94833 12.5 3.125C12.4996 3.30167 12.4396 3.45021 12.32 3.57062C12.2004 3.69104 12.0521 3.75083 11.875 3.75V11.875C11.875 12.2188 11.7527 12.5131 11.5081 12.7581C11.2635 13.0031 10.9692 13.1254 10.625 13.125H4.375ZM10.625 3.75H4.375V11.875H10.625V3.75ZM6.25 10.625C6.42709 10.625 6.57563 10.565 6.69563 10.445C6.81563 10.325 6.87542 10.1767 6.875 10V5.625C6.875 5.44792 6.815 5.29958 6.695 5.18C6.575 5.06042 6.42667 5.00042 6.25 5C6.07334 4.99958 5.925 5.05958 5.805 5.18C5.685 5.30042 5.625 5.44875 5.625 5.625V10C5.625 10.1771 5.685 10.3256 5.805 10.4456C5.925 10.5656 6.07334 10.6254 6.25 10.625ZM8.75 10.625C8.92709 10.625 9.07563 10.565 9.19563 10.445C9.31563 10.325 9.37542 10.1767 9.375 10V5.625C9.375 5.44792 9.315 5.29958 9.195 5.18C9.075 5.06042 8.92667 5.00042 8.75 5C8.57334 4.99958 8.425 5.05958 8.305 5.18C8.185 5.30042 8.125 5.44875 8.125 5.625V10C8.125 10.1771 8.185 10.3256 8.305 10.4456C8.425 10.5656 8.57334 10.6254 8.75 10.625Z" fill="black"/>
</svg>
