<svg width="15" height="15" viewBox="0 0 15 15" fill="none" xmlns="http://www.w3.org/2000/svg">
<g clip-path="url(#clip0_785_10366)">
<path d="M1.9375 4.43685H3.10417M3.10417 4.43685H12.4375M3.10417 4.43685V12.6035C3.10417 12.9129 3.22708 13.2097 3.44588 13.4285C3.66467 13.6473 3.96141 13.7702 4.27083 13.7702H10.1042C10.4136 13.7702 10.7103 13.6473 10.9291 13.4285C11.1479 13.2097 11.2708 12.9129 11.2708 12.6035V4.43685H3.10417ZM4.85417 4.43685V3.27018C4.85417 2.96076 4.97708 2.66402 5.19588 2.44522C5.41467 2.22643 5.71141 2.10352 6.02083 2.10352H8.35417C8.66359 2.10352 8.96033 2.22643 9.17912 2.44522C9.39792 2.66402 9.52083 2.96076 9.52083 3.27018V4.43685M6.02083 7.35352V10.8535M8.35417 7.35352V10.8535" stroke="#64748B" stroke-linecap="round" stroke-linejoin="round"/>
</g>
<defs>
<clipPath id="clip0_785_10366">
<rect width="14" height="14" fill="white" transform="translate(0.1875 0.9375)"/>
</clipPath>
</defs>
</svg>
