<svg width="20" height="20" viewBox="0 0 20 20" fill="none" xmlns="http://www.w3.org/2000/svg">
<path d="M12.1875 14.8438C12.3533 14.8438 12.5122 14.7779 12.6294 14.6607C12.7467 14.5435 12.8125 14.3845 12.8125 14.2188V7.96875C12.8125 7.80299 12.7467 7.64402 12.6294 7.52681C12.5122 7.4096 12.3533 7.34375 12.1875 7.34375C12.0217 7.34375 11.8628 7.4096 11.7456 7.52681C11.6283 7.64402 11.5625 7.80299 11.5625 7.96875V14.2188C11.5625 14.3845 11.6283 14.5435 11.7456 14.6607C11.8628 14.7779 12.0217 14.8438 12.1875 14.8438ZM7.8125 14.8438C7.97826 14.8438 8.13723 14.7779 8.25444 14.6607C8.37165 14.5435 8.4375 14.3845 8.4375 14.2188V7.96875C8.4375 7.80299 8.37165 7.64402 8.25444 7.52681C8.13723 7.4096 7.97826 7.34375 7.8125 7.34375C7.64674 7.34375 7.48777 7.4096 7.37056 7.52681C7.25335 7.64402 7.1875 7.80299 7.1875 7.96875V14.2188C7.1875 14.3845 7.25335 14.5435 7.37056 14.6607C7.48777 14.7779 7.64674 14.8438 7.8125 14.8438ZM12.5 2.65625C12.6658 2.65625 12.8247 2.5904 12.9419 2.47319C13.0592 2.35598 13.125 2.19701 13.125 2.03125C13.125 1.86549 13.0592 1.70652 12.9419 1.58931C12.8247 1.4721 12.6658 1.40625 12.5 1.40625H7.5C7.33424 1.40625 7.17527 1.4721 7.05806 1.58931C6.94085 1.70652 6.875 1.86549 6.875 2.03125C6.875 2.19701 6.94085 2.35598 7.05806 2.47319C7.17527 2.5904 7.33424 2.65625 7.5 2.65625H12.5Z" fill="#FF1111"/>
<path d="M3.125 3.28125C2.95924 3.28125 2.80027 3.3471 2.68306 3.46431C2.56585 3.58152 2.5 3.74049 2.5 3.90625C2.5 4.07201 2.56585 4.23098 2.68306 4.34819C2.80027 4.4654 2.95924 4.53125 3.125 4.53125H3.75V16.0312C3.75 17.4437 4.9 18.5938 6.3125 18.5938H13.6875C15.1 18.5938 16.25 17.4437 16.25 16.0312V4.53125H16.875C17.0408 4.53125 17.1997 4.4654 17.3169 4.34819C17.4342 4.23098 17.5 4.07201 17.5 3.90625C17.5 3.74049 17.4342 3.58152 17.3169 3.46431C17.1997 3.3471 17.0408 3.28125 16.875 3.28125H4.375H3.125ZM15 4.53125V16.0312C15 16.3793 14.8617 16.7132 14.6156 16.9593C14.3694 17.2055 14.0356 17.3438 13.6875 17.3438H6.3125C5.9644 17.3438 5.63056 17.2055 5.38442 16.9593C5.13828 16.7132 5 16.3793 5 16.0312V4.53125H15Z" fill="#FF1111"/>
</svg>
