<svg width="14" height="14" viewBox="0 0 14 14" fill="none" xmlns="http://www.w3.org/2000/svg">
<path d="M5.83858 6.27083C6.32892 6.27083 6.80824 6.12543 7.21593 5.85302C7.62363 5.58061 7.94139 5.19341 8.12903 4.7404C8.31668 4.2874 8.36577 3.78892 8.27011 3.30801C8.17445 2.8271 7.93834 2.38535 7.59162 2.03863C7.2449 1.69191 6.80316 1.4558 6.32225 1.36014C5.84133 1.26448 5.34286 1.31357 4.88985 1.50122C4.43684 1.68886 4.04965 2.00662 3.77723 2.41432C3.50482 2.82201 3.35942 3.30133 3.35942 3.79167C3.36019 4.44895 3.62163 5.07908 4.0864 5.54385C4.55117 6.00862 5.1813 6.27006 5.83858 6.27083ZM5.83858 2.1875C6.15586 2.1875 6.46601 2.28158 6.72981 2.45785C6.99362 2.63412 7.19922 2.88466 7.32064 3.17778C7.44206 3.4709 7.47382 3.79345 7.41193 4.10463C7.35003 4.4158 7.19725 4.70164 6.9729 4.92598C6.74855 5.15033 6.46272 5.30311 6.15154 5.36501C5.84036 5.42691 5.51782 5.39514 5.2247 5.27372C4.93157 5.15231 4.68104 4.9467 4.50477 4.68289C4.3285 4.41909 4.23442 4.10894 4.23442 3.79167C4.23488 3.36636 4.40404 2.9586 4.70478 2.65786C5.00552 2.35712 5.41327 2.18796 5.83858 2.1875ZM2.1875 10.5117C2.1875 11.4234 2.58008 11.8125 3.5 11.8125H5.83333C5.94937 11.8125 6.06065 11.8586 6.14269 11.9406C6.22474 12.0227 6.27083 12.134 6.27083 12.25C6.27083 12.366 6.22474 12.4773 6.14269 12.5594C6.06065 12.6414 5.94937 12.6875 5.83333 12.6875H3.5C2.0895 12.6875 1.3125 11.9146 1.3125 10.5117C1.3125 8.95883 2.191 7.14583 4.66667 7.14583H7C7.44951 7.13799 7.89679 7.21069 8.32067 7.3605C8.42122 7.40677 8.50049 7.48944 8.54251 7.59184C8.58453 7.69423 8.58618 7.80875 8.54712 7.91232C8.50806 8.01588 8.4312 8.10079 8.33202 8.14994C8.23285 8.19909 8.11873 8.20882 8.01267 8.17717C7.68712 8.06516 7.34417 8.01222 7 8.02083H4.66667C4.33355 7.99516 3.99882 8.04208 3.68559 8.15835C3.37237 8.27461 3.08809 8.45745 2.8524 8.69426C2.6167 8.93106 2.4352 9.21619 2.3204 9.52996C2.20561 9.84373 2.16027 10.1787 2.1875 10.5117ZM12.9716 8.09433L12.3218 7.44508C12.2273 7.34986 12.1149 7.27436 11.991 7.22299C11.8671 7.17162 11.7343 7.14539 11.6002 7.14583C11.4659 7.14556 11.3329 7.17198 11.2089 7.22355C11.085 7.27512 10.9725 7.35082 10.878 7.44625L7.27475 11.0664C7.23416 11.1069 7.20197 11.155 7.18005 11.2079C7.15812 11.2609 7.14689 11.3177 7.147 11.375V12.8333C7.147 12.9494 7.19309 13.0606 7.27514 13.1427C7.35719 13.2247 7.46847 13.2708 7.5845 13.2708H9.04283C9.15842 13.2707 9.26929 13.225 9.35142 13.1437L12.9681 9.53983C13.0633 9.44509 13.1388 9.33246 13.1904 9.20843C13.2419 9.0844 13.2685 8.9514 13.2685 8.81708C13.2685 8.68277 13.2419 8.54977 13.1904 8.42574C13.1388 8.30171 13.0633 8.18908 12.9681 8.09433H12.9716ZM8.86083 12.3958H8.02083V11.5558L10.4253 9.14025L11.2764 9.99133L8.86083 12.3958ZM12.3527 8.91975L11.8965 9.37417L11.0431 8.52017L11.4975 8.06342C11.5109 8.04988 11.5269 8.03914 11.5446 8.03183C11.5622 8.02452 11.5811 8.02078 11.6002 8.02083C11.6388 8.02089 11.6759 8.03619 11.7034 8.06342L12.3533 8.71325C12.3669 8.72663 12.3777 8.74262 12.385 8.76026C12.3923 8.77789 12.396 8.79682 12.3958 8.81592C12.3959 8.83522 12.3921 8.85434 12.3847 8.87216C12.3773 8.88999 12.3664 8.90616 12.3527 8.91975Z" fill="#2196F3"/>
</svg>
