<svg width="18" height="18" viewBox="0 0 18 18" fill="none" xmlns="http://www.w3.org/2000/svg">
<path d="M3.12879 12.2776C3.01755 12.2775 2.90882 12.2445 2.81634 12.1827C2.72386 12.1209 2.65178 12.0331 2.60922 11.9303C2.56665 11.8275 2.55551 11.7145 2.57721 11.6054C2.5989 11.4963 2.65246 11.396 2.7311 11.3174L11.5213 2.52719C11.5732 2.47347 11.6352 2.43062 11.7039 2.40114C11.7725 2.37166 11.8463 2.35614 11.921 2.35549C11.9957 2.35484 12.0698 2.36907 12.1389 2.39736C12.208 2.42564 12.2708 2.46741 12.3236 2.52022C12.3764 2.57304 12.4182 2.63584 12.4465 2.70497C12.4748 2.7741 12.489 2.84817 12.4884 2.92286C12.4877 2.99754 12.4722 3.07136 12.4427 3.13998C12.4132 3.20861 12.3704 3.27068 12.3167 3.32257L3.52647 12.1128C3.41679 12.2224 3.27279 12.2776 3.12879 12.2776Z" fill="#94A3B8"/>
<path d="M2.25478 16.3126C2.17085 16.3127 2.08796 16.294 2.0122 16.2578C1.93644 16.2217 1.86973 16.1691 1.81695 16.1038C1.76417 16.0385 1.72667 15.9623 1.70719 15.8807C1.68771 15.799 1.68675 15.714 1.70438 15.632L2.57344 11.5811C2.58874 11.5087 2.61818 11.44 2.66007 11.379C2.70197 11.318 2.75549 11.2658 2.81758 11.2256C2.87967 11.1853 2.9491 11.1576 3.02189 11.1442C3.09468 11.1308 3.16941 11.1319 3.24178 11.1474C3.31415 11.1629 3.38274 11.1926 3.44363 11.2347C3.50452 11.2768 3.5565 11.3305 3.5966 11.3927C3.6367 11.4549 3.66412 11.5244 3.6773 11.5972C3.69048 11.6701 3.68916 11.7448 3.67341 11.8171L2.80435 15.868C2.7774 15.9937 2.70815 16.1065 2.60814 16.1874C2.50814 16.2683 2.38342 16.3125 2.25478 16.3126ZM6.30506 15.4435C6.19383 15.4435 6.0851 15.4105 5.99262 15.3487C5.90014 15.2869 5.82806 15.1991 5.7855 15.0963C5.74293 14.9935 5.73179 14.8804 5.75349 14.7713C5.77518 14.6622 5.82873 14.562 5.90738 14.4834L14.6976 5.69345C14.7495 5.63973 14.8115 5.59688 14.8801 5.5674C14.9488 5.53792 15.0226 5.5224 15.0973 5.52175C15.172 5.5211 15.246 5.53533 15.3152 5.56362C15.3843 5.5919 15.4471 5.63367 15.4999 5.68648C15.5527 5.7393 15.5945 5.8021 15.6228 5.87123C15.6511 5.94036 15.6653 6.01443 15.6646 6.08912C15.664 6.1638 15.6485 6.23762 15.619 6.30624C15.5895 6.37487 15.5467 6.43694 15.4929 6.48883L6.70303 15.2787C6.65083 15.3311 6.5888 15.3726 6.5205 15.4009C6.4522 15.4292 6.37899 15.4437 6.30506 15.4435Z" fill="#94A3B8"/>
<path d="M2.25366 16.3126C2.11505 16.312 1.98154 16.2603 1.8787 16.1673C1.77587 16.0744 1.71095 15.9468 1.69638 15.8089C1.68182 15.6711 1.71864 15.5327 1.79978 15.4203C1.88092 15.308 2.00067 15.2295 2.1361 15.1999L6.18694 14.3309C6.3326 14.3001 6.48453 14.3283 6.60941 14.4094C6.73429 14.4904 6.82196 14.6177 6.85318 14.7633C6.88441 14.9088 6.85666 15.0608 6.776 15.186C6.69535 15.3111 6.56838 15.3992 6.42291 15.4309L2.37207 16.2999C2.33317 16.3084 2.29347 16.3126 2.25366 16.3126ZM13.5042 8.24435C13.4303 8.24449 13.3572 8.23 13.2889 8.20171C13.2206 8.17342 13.1587 8.1319 13.1065 8.07954L9.92475 4.89776C9.87103 4.84587 9.82818 4.7838 9.7987 4.71517C9.76922 4.64655 9.7537 4.57273 9.75305 4.49805C9.7524 4.42336 9.76663 4.34929 9.79492 4.28016C9.8232 4.21103 9.86497 4.14823 9.91778 4.09541C9.9706 4.0426 10.0334 4.00083 10.1025 3.97255C10.1717 3.94426 10.2457 3.93003 10.3204 3.93068C10.3951 3.93133 10.4689 3.94685 10.5375 3.97633C10.6062 4.00581 10.6682 4.04866 10.7201 4.10238L13.9019 7.28416C13.9806 7.36283 14.0341 7.46305 14.0558 7.57215C14.0775 7.68124 14.0664 7.79433 14.0238 7.89709C13.9812 7.99986 13.9091 8.08771 13.8167 8.14952C13.7242 8.21132 13.6155 8.24433 13.5042 8.24435ZM15.0953 6.6536C14.9839 6.65369 14.8751 6.62075 14.7825 6.55894C14.6899 6.49714 14.6178 6.40926 14.5752 6.30642C14.5325 6.20358 14.5214 6.09041 14.5431 5.98124C14.5649 5.87207 14.6185 5.7718 14.6973 5.69313C15.0103 5.3801 15.1827 4.95626 15.1827 4.50007C15.1827 4.04388 15.0103 3.62004 14.6973 3.30701C14.384 2.9937 13.9601 2.82129 13.5039 2.82129C13.0478 2.82129 12.6239 2.9937 12.3109 3.30701C12.2586 3.35925 12.1966 3.40069 12.1284 3.42897C12.0601 3.45724 11.9869 3.47179 11.913 3.47179C11.8392 3.47179 11.766 3.45724 11.6977 3.42897C11.6295 3.40069 11.5675 3.35925 11.5152 3.30701C11.463 3.25476 11.4215 3.19274 11.3933 3.12448C11.365 3.05622 11.3504 2.98306 11.3504 2.90918C11.3504 2.8353 11.365 2.76214 11.3933 2.69388C11.4215 2.62562 11.463 2.5636 11.5152 2.51135C12.0406 1.9857 12.7468 1.69629 13.5039 1.69629C14.2608 1.69629 14.9673 1.9857 15.4927 2.51135C16.0183 3.03673 16.3077 3.74295 16.3077 4.50007C16.3077 5.2572 16.0183 5.96341 15.4927 6.48879C15.4406 6.54112 15.3786 6.58262 15.3104 6.61091C15.2422 6.63919 15.1691 6.6537 15.0953 6.6536Z" fill="#94A3B8"/>
</svg>
