<svg width="20" height="20" viewBox="0 0 20 20" fill="none" xmlns="http://www.w3.org/2000/svg">
<path fill-rule="evenodd" clip-rule="evenodd" d="M18.4158 5.35724C16.6442 7.1289 12.4858 11.2864 11.4717 12.2972C11.2545 12.5141 10.9961 12.6853 10.7117 12.8006C9.89833 13.1381 7.91416 13.9164 7.33083 13.9556C7.15888 13.9671 6.98644 13.9418 6.82509 13.8812C6.66374 13.8206 6.51722 13.7262 6.39536 13.6044C6.27349 13.4825 6.17911 13.336 6.11853 13.1746C6.05796 13.0133 6.0326 12.8409 6.04416 12.6689C6.08333 12.0856 6.86166 10.1031 7.19333 9.29307C7.30916 9.00557 7.48167 8.74474 7.70083 8.5264L14.6425 1.5839C14.9789 1.24815 15.4347 1.05957 15.91 1.05957C16.3853 1.05957 16.8411 1.24815 17.1775 1.5839L18.4158 2.82224C18.7516 3.15861 18.9402 3.61447 18.9402 4.08974C18.9402 4.56501 18.7516 5.02086 18.4158 5.35724ZM7.29666 12.7031C7.86666 12.6314 9.5325 11.9364 10.2325 11.6456C10.3655 11.5933 10.4864 11.5141 10.5875 11.4131L10.5883 11.4122C12.9044 9.10076 15.2188 6.78771 17.5317 4.47307C17.5821 4.42276 17.622 4.36301 17.6493 4.29723C17.6766 4.23145 17.6906 4.16094 17.6906 4.08974C17.6906 4.01853 17.6766 3.94802 17.6493 3.88224C17.622 3.81647 17.5821 3.75671 17.5317 3.7064L16.2933 2.46807C16.243 2.41768 16.1833 2.3777 16.1175 2.35042C16.0517 2.32314 15.9812 2.3091 15.91 2.3091C15.8388 2.3091 15.7683 2.32314 15.7025 2.35042C15.6367 2.3777 15.577 2.41768 15.5267 2.46807L8.58416 9.41057C8.48421 9.50999 8.40565 9.62882 8.35333 9.75974L8.35167 9.76307C8.06417 10.4647 7.36833 12.1322 7.29666 12.7031Z" fill="#2196F3"/>
<path fill-rule="evenodd" clip-rule="evenodd" d="M16.765 6.12404C16.823 6.1821 16.8691 6.25102 16.9005 6.32687C16.9319 6.40272 16.9481 6.48402 16.9481 6.56612C16.9481 6.64823 16.9319 6.72953 16.9005 6.80538C16.8691 6.88123 16.823 6.95015 16.765 7.00821C16.7069 7.06626 16.638 7.11232 16.5622 7.14373C16.4863 7.17515 16.405 7.19133 16.3229 7.19133C16.2408 7.19133 16.1595 7.17515 16.0837 7.14373C16.0078 7.11232 15.9389 7.06626 15.8808 7.00821L12.9917 4.11904C12.8744 4.00179 12.8085 3.84277 12.8085 3.67696C12.8085 3.51114 12.8744 3.35212 12.9917 3.23487C13.1089 3.11763 13.2679 3.05176 13.4337 3.05176C13.5996 3.05176 13.7586 3.11763 13.8758 3.23487L16.765 6.12404ZM11.6642 11.2249C11.7222 11.2829 11.7682 11.3517 11.7996 11.4275C11.8309 11.5033 11.8471 11.5845 11.8471 11.6665C11.8471 11.7486 11.8309 11.8298 11.7996 11.9056C11.7682 11.9814 11.7222 12.0502 11.6642 12.1082C11.6062 12.1662 11.5373 12.2122 11.4615 12.2436C11.3857 12.275 11.3045 12.2912 11.2225 12.2912C11.1405 12.2912 11.0592 12.275 10.9835 12.2436C10.9077 12.2122 10.8388 12.1662 10.7808 12.1082L7.89165 9.21904C7.83365 9.16104 7.78765 9.09218 7.75626 9.0164C7.72487 8.94062 7.70871 8.8594 7.70871 8.77737C7.70871 8.69535 7.72487 8.61413 7.75626 8.53835C7.78765 8.46257 7.83365 8.39371 7.89165 8.33571C7.94966 8.27771 8.01851 8.2317 8.09429 8.20031C8.17007 8.16892 8.2513 8.15276 8.33332 8.15276C8.41535 8.15276 8.49657 8.16892 8.57235 8.20031C8.64813 8.2317 8.71699 8.27771 8.77499 8.33571L11.6642 11.2249Z" fill="#2196F3"/>
<path fill-rule="evenodd" clip-rule="evenodd" d="M7.08332 2.70801C7.24908 2.70801 7.40805 2.77386 7.52526 2.89107C7.64248 3.00828 7.70832 3.16725 7.70832 3.33301C7.70832 3.49877 7.64248 3.65774 7.52526 3.77495C7.40805 3.89216 7.24908 3.95801 7.08332 3.95801H4.16666C3.66938 3.95801 3.19246 4.15555 2.84083 4.50718C2.4892 4.85881 2.29166 5.33573 2.29166 5.83301V15.833C2.29166 16.3303 2.4892 16.8072 2.84083 17.1588C3.19246 17.5105 3.66938 17.708 4.16666 17.708H15C15.4973 17.708 15.9742 17.5105 16.3258 17.1588C16.6774 16.8072 16.875 16.3303 16.875 15.833V12.9163C16.875 12.7506 16.9408 12.5916 17.058 12.4744C17.1753 12.3572 17.3342 12.2913 17.5 12.2913C17.6658 12.2913 17.8247 12.3572 17.9419 12.4744C18.0591 12.5916 18.125 12.7506 18.125 12.9163V15.833C18.1245 16.6617 17.7952 17.4563 17.2092 18.0422C16.6233 18.6282 15.8287 18.9576 15 18.958H4.16666C3.33799 18.9576 2.54339 18.6282 1.95744 18.0422C1.37148 17.4563 1.0421 16.6617 1.04166 15.833V5.83301C1.04166 5.00421 1.3709 4.20935 1.95695 3.6233C2.543 3.03725 3.33786 2.70801 4.16666 2.70801H7.08332Z" fill="#2196F3"/>
</svg>
