<svg width="32" height="32" viewBox="0 0 32 32" fill="none" xmlns="http://www.w3.org/2000/svg">
<rect width="32" height="32" rx="16" fill="#EFF2FA"/>
<g clip-path="url(#clip0_1334_13011)">
<path d="M10.9675 6.3999V14.5134C9.91107 15.5915 9.63492 17.1527 10.1394 18.4833L7.67892 20.9439C7.04893 21.5738 7.04875 22.5933 7.67892 23.2234C8.30718 23.8517 9.32972 23.8518 9.95806 23.2234L10.9675 22.2139V24.6666H23.8616V6.3999H10.9675ZM11.7543 19.0445C10.7069 17.9971 10.7069 16.2929 11.7543 15.2455C12.8015 14.1983 14.5057 14.198 15.5532 15.2455C16.6006 16.2929 16.6006 17.9971 15.5532 19.0445C14.5059 20.0918 12.8016 20.0918 11.7543 19.0445ZM9.19824 22.4636C8.98878 22.6729 8.64809 22.673 8.43863 22.4635C8.22899 22.2539 8.22813 21.9142 8.43867 21.7036L10.6865 19.4558C10.9079 19.7398 11.1687 19.9906 11.4612 20.2006L9.19824 22.4636ZM22.7871 23.5921H12.042V21.1394L12.468 20.7133C13.7934 21.1513 15.2875 20.8298 16.313 19.8043C17.7793 18.338 17.7793 15.952 16.313 14.4857C15.1599 13.3326 13.4381 13.0865 12.042 13.7471V7.47441H22.7871V23.5921Z" fill="#373839"/>
<path d="M21.712 8.5498H13.1159V11.7733H21.712V8.5498ZM20.6375 10.6988H14.1904V9.62431H20.6375V10.6988ZM18.4885 12.8478H21.712V13.9224H18.4885V12.8478ZM17.4139 21.4439H21.712V22.5184H17.4139V21.4439ZM19.563 14.9969H21.712V16.0714H19.563V14.9969ZM19.563 17.1459H21.712V18.2204H19.563V17.1459ZM19.563 19.2949H21.712V20.3694H19.563V19.2949Z" fill="#373839"/>
</g>
<defs>
<clipPath id="clip0_1334_13011">
<rect width="18.2667" height="18.2667" fill="white" transform="translate(6.40002 6.3999)"/>
</clipPath>
</defs>
</svg>
