<svg width="22" height="22" viewBox="0 0 22 22" fill="none" xmlns="http://www.w3.org/2000/svg">
<g clip-path="url(#clip0_1310_15980)">
<path d="M5.84375 10.3984C2.6452 10.3984 0.0429688 13.0007 0.0429688 16.1992C0.0429688 19.3978 2.6452 22 5.84375 22C9.0423 22 11.6445 19.3978 11.6445 16.1992C11.6445 13.0007 9.0423 10.3984 5.84375 10.3984ZM8.40495 15.4948L5.39713 18.5026C5.27132 18.6285 5.10636 18.6914 4.94141 18.6914C4.77645 18.6914 4.61149 18.6285 4.48568 18.5026L3.19662 17.2135C2.94491 16.9619 2.94491 16.5538 3.19662 16.302C3.44829 16.0504 3.8564 16.0504 4.10811 16.302L4.94141 17.1354L7.49349 14.5833C7.74516 14.3316 8.15328 14.3316 8.40499 14.5833C8.65666 14.835 8.65666 15.2431 8.40495 15.4948Z" fill="#1F1F1F"/>
<path d="M17.0156 5.58594C16.6597 5.58594 16.3711 5.29736 16.3711 4.94141V0H7.13281C6.06663 0 5.19922 0.86741 5.19922 1.93359V9.13898C5.41157 9.11973 5.62646 9.10938 5.84375 9.10938C8.04066 9.10938 10.0073 10.1138 11.3088 11.6875H18.3047C18.6606 11.6875 18.9492 11.9761 18.9492 12.332C18.9492 12.688 18.6606 12.9766 18.3047 12.9766H12.1579C12.5697 13.7801 12.823 14.6554 12.904 15.5547H18.3047C18.6606 15.5547 18.9492 15.8433 18.9492 16.1992C18.9492 16.5552 18.6606 16.8438 18.3047 16.8438H12.904C12.7112 18.9724 11.5739 20.8324 9.91538 22H20.0234C21.0896 22 21.957 21.1326 21.957 20.0664V5.58594H17.0156ZM18.3047 9.10938H8.85156C8.49561 9.10938 8.20703 8.8208 8.20703 8.46484C8.20703 8.10889 8.49561 7.82031 8.85156 7.82031H18.3047C18.6606 7.82031 18.9492 8.10889 18.9492 8.46484C18.9492 8.8208 18.6606 9.10938 18.3047 9.10938Z" fill="#1F1F1F"/>
<path d="M17.6602 0.377441V4.29692H21.5794L17.6602 0.377441Z" fill="#1F1F1F"/>
</g>
<defs>
<clipPath id="clip0_1310_15980">
<rect width="22" height="22" fill="white"/>
</clipPath>
</defs>
</svg>
