<svg width="15" height="15" viewBox="0 0 15 15" fill="none" xmlns="http://www.w3.org/2000/svg">
<g clip-path="url(#clip0_1410_14391)">
<path fill-rule="evenodd" clip-rule="evenodd" d="M6.53913 10.3093C6.55971 10.3196 6.58965 10.3196 6.58965 10.3196V10.3402C6.62053 10.3402 6.68041 10.299 6.68041 10.299L7.77141 9.20895L7.80229 9.17901C7.83023 9.15616 7.85398 9.12861 7.87246 9.0976C7.89305 9.05737 7.9024 9.0162 7.88182 8.97597C7.8631 8.93573 7.83223 8.8955 7.79199 8.8955C7.37851 8.80606 6.99966 8.59909 6.701 8.29948C6.34496 7.9498 6.12618 7.48401 6.08439 6.98673C6.05383 6.67275 6.09328 6.35591 6.19991 6.05901C6.30653 5.76212 6.47767 5.49257 6.701 5.26977L9.55854 2.41035C10.366 1.60193 11.7798 1.60193 12.5883 2.41035C12.9925 2.82486 13.2152 3.36006 13.2152 3.9355C13.2152 4.51094 12.9925 5.05644 12.5883 5.46065L11.2858 6.75375C11.271 6.76991 11.2605 6.78947 11.2551 6.81069C11.2497 6.83191 11.2496 6.85413 11.2549 6.87538C11.3766 7.3086 11.4467 7.76334 11.4467 8.21807C11.4467 8.43983 11.4374 8.63164 11.4065 8.79351C11.4065 8.84404 11.4271 8.90486 11.4776 8.92451C11.5014 8.93888 11.5293 8.94477 11.5568 8.9412C11.5844 8.93763 11.6099 8.92482 11.6292 8.90486L13.8411 6.70322C15.3663 5.16778 15.3663 2.68263 13.8411 1.15749C13.1063 0.424988 12.111 0.0136719 11.0734 0.0136719C10.0358 0.0136719 9.04054 0.424988 8.30568 1.15749L5.44813 4.0169C5.1955 4.26954 4.99433 4.54275 4.84275 4.81503L4.83059 4.82439C4.82123 4.83187 4.81188 4.83842 4.81188 4.84497C4.50192 5.39531 4.32905 6.01218 4.30788 6.64344C4.28671 7.2747 4.41786 7.90178 4.69024 8.47164C4.88299 8.86462 5.12533 9.21831 5.44813 9.54205C5.76158 9.86486 6.13492 10.1278 6.53913 10.3093ZM1.1665 13.8443C1.93281 14.6022 2.93398 14.9858 3.93328 14.9858L3.90334 14.9951C4.90264 14.9951 5.91316 14.6115 6.67106 13.8546L9.5286 10.9961C10.0513 10.4794 10.4158 9.82441 10.5794 9.1079L10.6402 8.66345C10.6598 8.5624 10.6598 8.46135 10.6598 8.36029V7.95702C10.6598 7.85503 10.6505 7.75398 10.6299 7.67351C10.6205 7.56217 10.5999 7.47141 10.5794 7.38065C10.556 7.26784 10.5257 7.15659 10.4886 7.04755C10.3075 6.45173 9.98116 5.91027 9.53889 5.47187C9.22404 5.16003 8.85863 4.90378 8.45819 4.71398C8.41796 4.68404 8.31691 4.73456 8.31691 4.73456L7.22591 5.82462C7.19597 5.8555 7.15574 5.89573 7.12486 5.95562C7.10521 5.98649 7.10521 6.02673 7.12486 6.0679C7.14544 6.10813 7.17538 6.13807 7.21562 6.13807C7.63012 6.21854 8.00346 6.42065 8.30661 6.7238C8.71082 7.13831 8.93351 7.6838 8.92322 8.27889C8.91293 8.6438 8.82217 8.99655 8.65 9.29877C8.60195 9.38585 8.54453 9.46743 8.47878 9.54205C8.43854 9.60287 8.38802 9.67304 8.30661 9.75351L5.44813 12.612C5.04244 13.0063 4.499 13.2268 3.93328 13.2268C3.36755 13.2268 2.82412 13.0063 2.41843 12.612C2.01638 12.2063 1.79104 11.658 1.79153 11.0868C1.79153 10.5114 2.01421 9.96591 2.41843 9.5617L3.72182 8.25924C3.75176 8.21901 3.76205 8.16848 3.75176 8.12825C3.54932 7.51672 3.49041 6.86679 3.5796 6.22883C3.58402 6.20231 3.57953 6.17507 3.56684 6.15137C3.55414 6.12767 3.53395 6.10885 3.50942 6.09784C3.46919 6.06696 3.36813 6.11749 3.36813 6.11749L1.16556 8.30883C0.799063 8.67027 0.508468 9.10128 0.310835 9.57656C0.113202 10.0518 0.0125138 10.5618 0.0146827 11.0766C0.0146827 12.1161 0.429186 13.107 1.16556 13.8433L1.1665 13.8443Z" fill="black"/>
</g>
<defs>
<clipPath id="clip0_1410_14391">
<rect width="15" height="15" fill="white"/>
</clipPath>
</defs>
</svg>
