<svg width="15" height="15" viewBox="0 0 15 15" fill="none" xmlns="http://www.w3.org/2000/svg">
<g clip-path="url(#clip0_1410_14396)">
<path d="M6.73534 10.0719C6.58029 10.0719 6.4315 10.1335 6.32174 10.2431C6.21212 10.3528 6.15038 10.5016 6.15038 10.6568V12.6066C6.15038 13.072 6.33534 13.5182 6.66449 13.8474C6.99348 14.1765 7.43986 14.3613 7.90527 14.3613H12.9377C13.4031 14.3613 13.8495 14.1765 14.1785 13.8474C14.5076 13.5182 14.6926 13.072 14.6926 12.6066L14.6926 3.4427C14.6926 2.9773 14.5077 2.53105 14.1785 2.20192C13.8495 1.87279 13.4031 1.68795 12.9377 1.68795H7.90735C7.44195 1.68795 6.9957 1.87278 6.66658 2.20192C6.33745 2.53106 6.15261 2.9773 6.15261 3.4427V5.19756C6.15261 5.40646 6.26413 5.59959 6.44501 5.70404C6.62603 5.80863 6.84896 5.80863 7.02998 5.70404C7.211 5.59959 7.32238 5.40646 7.32238 5.19756L7.32238 3.4427C7.32238 3.28766 7.38413 3.13887 7.49375 3.02911C7.60351 2.91949 7.7523 2.85788 7.90734 2.85788H12.9377C13.0929 2.85788 13.2417 2.91949 13.3513 3.02911C13.4611 3.13886 13.5227 3.28765 13.5227 3.4427L13.5227 12.6066C13.5227 12.7616 13.4611 12.9104 13.3513 13.0202C13.2417 13.1298 13.0929 13.1914 12.9377 13.1914H7.90734C7.7523 13.1914 7.60351 13.1298 7.49375 13.0202C7.38413 12.9104 7.32238 12.7616 7.32238 12.6066L7.32238 10.6568C7.32238 10.5012 7.2605 10.3522 7.15047 10.2424C7.04031 10.1327 6.89098 10.0713 6.73552 10.0719L6.73534 10.0719Z" fill="#919191"/>
<path d="M10.9275 7.92787C10.9275 7.77282 10.8659 7.62403 10.7561 7.51427C10.6464 7.40465 10.4977 7.34291 10.3425 7.34291L2.30743 7.34291L4.4756 5.1981V5.19823C4.61595 5.04999 4.66886 4.8392 4.61514 4.64224C4.56141 4.44531 4.40882 4.29052 4.21258 4.23408C4.01646 4.1775 3.80498 4.22741 3.6547 4.36559L0.474646 7.51056C0.363394 7.62045 0.300694 7.77046 0.300694 7.92687C0.300694 8.08327 0.363394 8.23328 0.474646 8.34317L3.6547 11.4842C3.80499 11.6224 4.01649 11.6723 4.21258 11.6159C4.40883 11.5593 4.56145 11.4046 4.61514 11.2077C4.66886 11.0106 4.61595 10.8 4.4756 10.6517L2.30743 8.50689H10.3425C10.4966 8.50689 10.6446 8.4461 10.7541 8.3377C10.8636 8.22917 10.9258 8.08188 10.9275 7.9278L10.9275 7.92787Z" fill="#919191"/>
</g>
<defs>
<clipPath id="clip0_1410_14396">
<rect width="15" height="15" fill="white"/>
</clipPath>
</defs>
</svg>
