<svg width="18" height="18" viewBox="0 0 18 18" fill="none" xmlns="http://www.w3.org/2000/svg">
<path d="M4.5 15.7148V7.83984C4.5 7.53516 4.39453 7.27734 4.18359 7.06641C3.97266 6.85547 3.70312 6.75 3.375 6.75H1.125C0.796875 6.75 0.527344 6.85547 0.316406 7.06641C0.105469 7.27734 0 7.53516 0 7.83984V15.6797C0 16.0078 0.105469 16.2656 0.316406 16.4531C0.527344 16.6641 0.796875 16.7695 1.125 16.7695H3.375C3.70312 16.793 3.97266 16.7109 4.18359 16.5234C4.39453 16.3125 4.5 16.043 4.5 15.7148ZM18 7.875C17.9766 7.40625 17.8125 7.00781 17.5078 6.67969C17.1797 6.375 16.7812 6.21094 16.3125 6.1875H11.1797C11.5781 5.50781 11.8711 4.85156 12.0586 4.21875C12.2695 3.5625 12.375 3.09375 12.375 2.8125C12.375 2.39062 12.2227 2.00391 11.918 1.65234C11.6133 1.32422 11.1914 1.14844 10.6523 1.125C10.0898 1.125 9.70312 1.27734 9.49219 1.58203C9.28125 1.88672 9.10547 2.28516 8.96484 2.77734C8.82422 3.26953 8.61328 3.79688 8.33203 4.35938C8.02734 4.94531 7.52344 5.53125 6.82031 6.11719L6.25781 6.57422C5.83594 6.92578 5.625 7.35938 5.625 7.875V13.5C5.64844 14.0625 5.87109 14.5078 6.29297 14.8359L7.48828 15.75C8.49609 16.5 9.62109 16.875 10.8633 16.875H12.9375C13.4062 16.8516 13.8047 16.6875 14.1328 16.3828C14.4375 16.0547 14.6016 15.6562 14.625 15.1875C14.625 15.0703 14.6133 14.9414 14.5898 14.8008C15.3164 14.543 15.7031 14.0156 15.75 13.2188C15.75 12.8906 15.668 12.5977 15.5039 12.3398C15.9023 12.2695 16.2305 12.082 16.4883 11.7773C16.7461 11.4727 16.875 11.1094 16.875 10.6875C16.875 10.2422 16.7227 9.86719 16.418 9.5625C16.8633 9.51562 17.2383 9.33984 17.543 9.03516C17.8477 8.73047 18 8.34375 18 7.875Z" fill="#2196F3"/>
</svg>
