<svg width="15" height="15" viewBox="0 0 15 15" fill="none" xmlns="http://www.w3.org/2000/svg">
<g clip-path="url(#clip0_1320_13275)">
<path fill-rule="evenodd" clip-rule="evenodd" d="M6.53913 10.3089C6.55971 10.3192 6.58965 10.3192 6.58965 10.3192V10.3398C6.62053 10.3398 6.68041 10.2986 6.68041 10.2986L7.77141 9.20858L7.80229 9.17864C7.83023 9.15579 7.85398 9.12824 7.87246 9.09724C7.89305 9.057 7.9024 9.01584 7.88182 8.9756C7.8631 8.93537 7.83223 8.89513 7.79199 8.89513C7.37851 8.80569 6.99966 8.59872 6.701 8.29911C6.34496 7.94943 6.12618 7.48364 6.08439 6.98636C6.05383 6.67239 6.09328 6.35554 6.19991 6.05865C6.30653 5.76175 6.47767 5.4922 6.701 5.2694L9.55854 2.40999C10.366 1.60157 11.7798 1.60157 12.5883 2.40999C12.9925 2.82449 13.2152 3.35969 13.2152 3.93513C13.2152 4.51057 12.9925 5.05607 12.5883 5.46028L11.2858 6.75338C11.271 6.76954 11.2605 6.7891 11.2551 6.81032C11.2497 6.83154 11.2496 6.85377 11.2549 6.87502C11.3766 7.30823 11.4467 7.76297 11.4467 8.21771C11.4467 8.43946 11.4374 8.63127 11.4065 8.79315C11.4065 8.84367 11.4271 8.90449 11.4776 8.92414C11.5014 8.93852 11.5293 8.9444 11.5568 8.94083C11.5844 8.93727 11.6099 8.92445 11.6292 8.90449L13.8411 6.70285C15.3663 5.16741 15.3663 2.68227 13.8411 1.15712C13.1063 0.424622 12.111 0.0133057 11.0734 0.0133057C10.0358 0.0133057 9.04054 0.424622 8.30568 1.15712L5.44813 4.01654C5.1955 4.26917 4.99433 4.54238 4.84275 4.81467L4.83059 4.82402C4.82123 4.83151 4.81188 4.83806 4.81188 4.84461C4.50192 5.39494 4.32905 6.01182 4.30788 6.64308C4.28671 7.27434 4.41786 7.90141 4.69024 8.47127C4.88299 8.86426 5.12533 9.21794 5.44813 9.54168C5.76158 9.86449 6.13492 10.1274 6.53913 10.3089ZM1.1665 13.8439C1.93281 14.6018 2.93398 14.9854 3.93328 14.9854L3.90334 14.9948C4.90264 14.9948 5.91316 14.6112 6.67106 13.8542L9.5286 10.9957C10.0513 10.479 10.4158 9.82404 10.5794 9.10753L10.6402 8.66309C10.6598 8.56203 10.6598 8.46098 10.6598 8.35993V7.95665C10.6598 7.85467 10.6505 7.75361 10.6299 7.67315C10.6205 7.5618 10.5999 7.47104 10.5794 7.38028C10.556 7.26747 10.5257 7.15623 10.4886 7.04718C10.3075 6.45136 9.98116 5.9099 9.53889 5.47151C9.22404 5.15967 8.85863 4.90341 8.45819 4.71361C8.41796 4.68367 8.31691 4.7342 8.31691 4.7342L7.22591 5.82426C7.19597 5.85513 7.15574 5.89537 7.12486 5.95525C7.10521 5.98613 7.10521 6.02636 7.12486 6.06753C7.14544 6.10776 7.17538 6.13771 7.21562 6.13771C7.63012 6.21817 8.00346 6.42028 8.30661 6.72344C8.71082 7.13794 8.93351 7.68344 8.92322 8.27852C8.91293 8.64344 8.82217 8.99619 8.65 9.29841C8.60195 9.38549 8.54453 9.46706 8.47878 9.54168C8.43854 9.6025 8.38802 9.67268 8.30661 9.75315L5.44813 12.6116C5.04244 13.0059 4.499 13.2265 3.93328 13.2265C3.36755 13.2265 2.82412 13.0059 2.41843 12.6116C2.01638 12.2059 1.79104 11.6577 1.79153 11.0865C1.79153 10.511 2.01421 9.96554 2.41843 9.56133L3.72182 8.25888C3.75176 8.21864 3.76205 8.16812 3.75176 8.12788C3.54932 7.51636 3.49041 6.86643 3.5796 6.22847C3.58402 6.20195 3.57953 6.17471 3.56684 6.15101C3.55414 6.12731 3.53395 6.10848 3.50942 6.09747C3.46919 6.0666 3.36813 6.11712 3.36813 6.11712L1.16556 8.30847C0.799063 8.6699 0.508468 9.10091 0.310835 9.57619C0.113202 10.0515 0.0125138 10.5615 0.0146827 11.0762C0.0146827 12.1157 0.429186 13.1066 1.16556 13.843L1.1665 13.8439Z" fill="black"/>
</g>
<defs>
<clipPath id="clip0_1320_13275">
<rect width="15" height="15" fill="white"/>
</clipPath>
</defs>
</svg>
