<svg width="44" height="26" viewBox="0 0 44 26" fill="none" xmlns="http://www.w3.org/2000/svg">
<g clip-path="url(#clip0_1482_6583)">
<path d="M39.7307 0H3.61188C1.61709 0 0 1.45507 0 3.25V22.75C0 24.5449 1.61709 26 3.61188 26H39.7307C41.7255 26 43.3426 24.5449 43.3426 22.75V3.25C43.3426 1.45507 41.7255 0 39.7307 0Z" fill="#252525"/>
<path d="M16.2535 21.125C21.2404 21.125 25.2832 17.4873 25.2832 13C25.2832 8.51269 21.2404 4.875 16.2535 4.875C11.2665 4.875 7.22375 8.51269 7.22375 13C7.22375 17.4873 11.2665 21.125 16.2535 21.125Z" fill="#EB001B"/>
<path d="M27.0892 21.125C32.0761 21.125 36.1189 17.4873 36.1189 13C36.1189 8.51269 32.0761 4.875 27.0892 4.875C22.1022 4.875 18.0594 8.51269 18.0594 13C18.0594 17.4873 22.1022 21.125 27.0892 21.125Z" fill="#F79E1B"/>
<path fill-rule="evenodd" clip-rule="evenodd" d="M21.6713 6.5C23.8645 7.98234 25.2832 10.3424 25.2832 13.0006C25.2832 15.6588 23.8645 18.0189 21.6713 19.5012C19.4781 18.0189 18.0594 15.6588 18.0594 13.0006C18.0594 10.3424 19.4781 7.98234 21.6713 6.5Z" fill="#FF5F00"/>
</g>
<defs>
<clipPath id="clip0_1482_6583">
<rect width="43.3426" height="26" fill="white"/>
</clipPath>
</defs>
</svg>
