<svg width="24" height="24" viewBox="0 0 24 24" fill="none" xmlns="http://www.w3.org/2000/svg">
<path d="M23 19C23 19.2652 22.8946 19.5196 22.7071 19.7071C22.5196 19.8946 22.2652 20 22 20H10C9.73478 20 9.48043 19.8946 9.29289 19.7071C9.10536 19.5196 9 19.2652 9 19C9 17.4087 9.63214 15.8826 10.7574 14.7574C11.8826 13.6321 13.4087 13 15 13H17C18.5913 13 20.1174 13.6321 21.2426 14.7574C22.3679 15.8826 23 17.4087 23 19ZM16 4C15.2089 4 14.4355 4.2346 13.7777 4.67412C13.1199 5.11365 12.6072 5.73836 12.3045 6.46927C12.0017 7.20017 11.9225 8.00444 12.0769 8.78036C12.2312 9.55629 12.6122 10.269 13.1716 10.8284C13.731 11.3878 14.4437 11.7688 15.2196 11.9231C15.9956 12.0775 16.7998 11.9983 17.5307 11.6955C18.2616 11.3928 18.8864 10.8801 19.3259 10.2223C19.7654 9.56448 20 8.79113 20 8C20 6.93913 19.5786 5.92172 18.8284 5.17157C18.0783 4.42143 17.0609 4 16 4ZM7 4C6.20887 4 5.43552 4.2346 4.77772 4.67412C4.11992 5.11365 3.60723 5.73836 3.30448 6.46927C3.00173 7.20017 2.92252 8.00444 3.07686 8.78036C3.2312 9.55629 3.61216 10.269 4.17157 10.8284C4.73098 11.3878 5.44371 11.7688 6.21964 11.9231C6.99556 12.0775 7.79983 11.9983 8.53073 11.6955C9.26164 11.3928 9.88635 10.8801 10.3259 10.2223C10.7654 9.56448 11 8.79113 11 8C11 6.93913 10.5786 5.92172 9.82843 5.17157C9.07828 4.42143 8.06087 4 7 4ZM7 19C6.99851 17.9496 7.20546 16.9094 7.60884 15.9395C8.01223 14.9697 8.60404 14.0895 9.35 13.35C8.73954 13.1195 8.09253 13.001 7.44 13H6.56C5.08621 13.0026 3.67354 13.5893 2.63141 14.6314C1.58928 15.6735 1.00264 17.0862 1 18.56V19C1 19.2652 1.10536 19.5196 1.29289 19.7071C1.48043 19.8946 1.73478 20 2 20H7.18C7.06358 19.6793 7.0027 19.3411 7 19Z" fill="#878787"/>
</svg>
