<svg width="24" height="24" viewBox="0 0 24 24" fill="none" xmlns="http://www.w3.org/2000/svg">
<path d="M7.36844 6.76903C7.06434 3.10886 7.55079 0.36557 8.7911 0.0330074C9.36728 -0.12078 10.095 0.264829 10.9045 1.14789C10.6675 1.39921 10.5244 1.72447 10.4991 2.06895C10.4738 2.41343 10.568 2.7561 10.7657 3.03931C10.9634 3.32252 11.2527 3.52898 11.5848 3.62396C11.9168 3.71894 12.2715 3.69663 12.5891 3.5608C12.8667 4.05271 13.1384 4.58209 13.4015 5.14171C12.5249 5.77759 11.6295 6.50012 10.7358 7.29415C9.57412 7.05638 8.44317 6.88058 7.36844 6.76903ZM10.887 16.1449C10.3538 16.0019 9.82951 15.8499 9.31424 15.6888C9.62756 16.5886 9.96637 17.4493 10.3245 18.2569C11.0352 17.7377 11.7569 17.1618 12.4783 16.5378C11.9524 16.419 11.422 16.288 10.887 16.1449ZM11.9983 3.04223C12.1693 3.04219 12.3365 2.99144 12.4786 2.89641C12.6208 2.80138 12.7316 2.66632 12.797 2.50832C12.8624 2.35032 12.8795 2.17648 12.8461 2.00877C12.8127 1.84106 12.7303 1.68702 12.6094 1.56612C12.4885 1.44523 12.3344 1.36291 12.1667 1.32957C11.999 1.29624 11.8251 1.31339 11.6671 1.37885C11.5092 1.44431 11.3742 1.55515 11.2792 1.69734C11.1842 1.83954 11.1335 2.0067 11.1335 2.17771C11.1338 2.40696 11.225 2.62675 11.3871 2.78883C11.5493 2.95091 11.7691 3.04205 11.9983 3.04223ZM13.1089 7.85466C13.6426 7.99771 14.1674 8.14991 14.6831 8.31127C14.37 7.41026 14.0313 6.54811 13.6742 5.74031C12.9622 6.26037 12.239 6.83734 11.516 7.46281C12.0433 7.58179 12.5743 7.71241 13.109 7.85466H13.1089ZM20.0318 16.132C19.8607 16.132 19.6935 16.1827 19.5513 16.2777C19.4091 16.3727 19.2982 16.5077 19.2327 16.6657C19.1673 16.8237 19.1501 16.9976 19.1835 17.1653C19.2168 17.3331 19.2991 17.4872 19.4201 17.6081C19.541 17.7291 19.6951 17.8115 19.8628 17.8448C20.0306 17.8782 20.2044 17.8611 20.3624 17.7957C20.5205 17.7302 20.6555 17.6194 20.7506 17.4772C20.8456 17.335 20.8963 17.1678 20.8963 16.9968C20.8959 16.7676 20.8047 16.548 20.6427 16.3859C20.4807 16.2239 20.261 16.1327 20.0319 16.1323L20.0318 16.132ZM13.2614 16.7059C12.3614 17.507 11.4676 18.2295 10.5998 18.8605C10.9632 19.6398 11.3709 20.3976 11.8207 21.1303C13.0866 23.1692 14.3194 24.2041 15.2049 23.9667C16.4452 23.6341 16.9316 20.8911 16.6276 17.2313C15.5501 17.12 14.4208 16.9436 13.2614 16.7059ZM5.35988 14.2087C4.97407 14.7629 4.62535 15.3075 4.31876 15.8362C4.57635 16.0456 4.75718 16.3347 4.83294 16.6579C4.90871 16.9812 4.87513 17.3204 4.73746 17.6226C4.59978 17.9247 4.3658 18.1726 4.07214 18.3276C3.77849 18.4825 3.44174 18.5356 3.11464 18.4787C2.79011 19.5666 2.83076 20.3527 3.23779 20.7598C3.86246 21.3838 5.44842 21.121 7.48108 20.0558C8.27602 19.6332 9.04404 19.1619 9.78076 18.6444C9.34497 17.6655 8.93081 16.5919 8.55006 15.4426C7.42079 15.067 6.34953 14.6519 5.35988 14.2087ZM4.22695 16.9968C4.22697 16.8257 4.17626 16.6585 4.08125 16.5163C3.98624 16.3741 3.85118 16.2632 3.69316 16.1978C3.53515 16.1323 3.36127 16.1152 3.19352 16.1486C3.02576 16.1819 2.87168 16.2643 2.75074 16.3852C2.62981 16.5062 2.54745 16.6603 2.5141 16.828C2.48075 16.9958 2.4979 17.1697 2.56338 17.3277C2.62885 17.4857 2.73972 17.6207 2.88195 17.7157C3.02418 17.8107 3.19139 17.8614 3.36242 17.8614C3.59164 17.8611 3.81138 17.7699 3.97345 17.6078C4.13552 17.4457 4.22669 17.226 4.22695 16.9968ZM7.29189 10.7409C7.05075 9.56894 6.87277 8.43124 6.76043 7.35344C5.862 7.27316 4.95943 7.24896 4.05799 7.28096C1.76486 7.37525 0.2598 7.94053 0.0315481 8.79325C-0.196704 9.64598 0.823788 10.8884 2.76225 12.1162C3.52903 12.5955 4.32485 13.0266 5.14511 13.4072C5.78228 12.5272 6.50441 11.6301 7.29189 10.7409ZM18.6374 9.79114C19.1572 9.05178 19.6305 8.28087 20.0548 7.48284C21.1199 5.45018 21.3829 3.86372 20.7588 3.23955C20.1347 2.61537 18.5482 2.87833 16.515 3.94354C15.7165 4.3681 14.9451 4.84184 14.2053 5.36203C14.649 6.35447 15.0652 7.4287 15.4414 8.55528C16.5727 8.93167 17.646 9.34752 18.6374 9.79114ZM8.47103 12.9449C8.29176 12.2754 8.13061 11.6011 7.98776 10.9228C8.45068 10.4087 8.92694 9.90683 9.41607 9.41763C9.91342 8.92027 10.4158 8.44341 10.9232 7.98703C11.589 8.12932 12.2639 8.29064 12.9435 8.47289C13.6231 8.65513 14.2875 8.85255 14.9352 9.06226C15.1492 9.72135 15.346 10.3859 15.5254 11.0553C15.7049 11.725 15.8661 12.3995 16.0089 13.078C15.5534 13.5828 15.0773 14.0843 14.5805 14.5824C14.0837 15.0804 13.581 15.5574 13.0722 16.0133C12.4072 15.8713 11.7342 15.7091 11.0529 15.5268C10.374 15.3449 9.71036 15.1486 9.06189 14.9377C8.85082 14.2885 8.65387 13.6242 8.47103 12.9449ZM9.78304 11.9998C9.78308 12.4379 9.91301 12.8661 10.1564 13.2303C10.3998 13.5945 10.7458 13.8784 11.1505 14.046C11.5552 14.2137 12.0006 14.2575 12.4302 14.172C12.8599 14.0865 13.2546 13.8756 13.5643 13.5658C13.8741 13.256 14.085 12.8614 14.1705 12.4317C14.2559 12.0021 14.2121 11.5567 14.0444 11.152C13.8768 10.7472 13.5929 10.4013 13.2287 10.1579C12.8644 9.91453 12.4362 9.78461 11.9981 9.7846C11.4108 9.78525 10.8478 10.0189 10.4325 10.4341C10.0172 10.8494 9.78367 11.4125 9.78304 11.9998ZM11.9981 13.5753C12.3098 13.5754 12.6144 13.483 12.8735 13.3099C13.1326 13.1368 13.3346 12.8907 13.4538 12.6028C13.5731 12.3149 13.6043 11.9981 13.5435 11.6925C13.4827 11.3868 13.3327 11.1061 13.1124 10.8857C12.892 10.6654 12.6113 10.5153 12.3056 10.4545C12 10.3937 11.6832 10.4249 11.3953 10.5442C11.1074 10.6634 10.8613 10.8653 10.6882 11.1245C10.5151 11.3836 10.4227 11.6882 10.4227 11.9998C10.4231 12.4175 10.5892 12.818 10.8846 13.1134C11.1799 13.4088 11.5804 13.5749 11.9981 13.5753ZM8.30693 14.6847C8.14829 14.1728 7.99691 13.6481 7.85281 13.1105C7.70956 12.5759 7.57878 12.0453 7.46045 11.5187C6.83638 12.2406 6.25891 12.9649 5.73815 13.6775C6.54408 14.0339 7.40463 14.3715 8.30693 14.6847ZM8.96343 8.96539C9.35489 8.57393 9.74903 8.19529 10.1458 7.82948C9.21171 7.65011 8.30158 7.51219 7.42902 7.41789C7.52064 8.28826 7.6549 9.20266 7.83189 10.1435C8.19816 9.74731 8.57534 9.3546 8.96343 8.96539ZM15.6861 9.31411C15.8472 9.83116 15.9995 10.3562 16.1428 10.8891C16.286 11.4238 16.4168 11.9545 16.5352 12.481C17.1608 11.7579 17.738 11.0345 18.258 10.3224C17.4518 9.96555 16.59 9.62783 15.6866 9.31411H15.6861ZM20.0314 15.4924C20.3556 15.4929 20.6709 15.5979 20.9306 15.792C21.1903 15.986 21.3804 16.2587 21.4728 16.5694C22.8918 16.3335 23.7936 15.8434 23.964 15.2063C24.1928 14.3536 23.1719 13.1112 21.2333 11.8834C20.4669 11.4044 19.6715 10.9735 18.8517 10.593C18.2155 11.4723 17.4945 12.3679 16.7039 13.2596C16.9449 14.431 17.1228 15.5681 17.235 16.6455C17.6855 16.6832 18.1249 16.7087 18.5532 16.722C18.6176 16.3768 18.8007 16.065 19.0707 15.8404C19.3407 15.6159 19.6807 15.4928 20.0319 15.4924H20.0314ZM16.163 13.8563C15.7978 14.2516 15.4208 14.6443 15.0318 15.0345C14.639 15.4272 14.2453 15.8061 13.8507 16.1713C14.7828 16.3498 15.6918 16.4886 16.5661 16.5825C16.4748 15.7118 16.3405 14.797 16.1635 13.8562L16.163 13.8563Z" fill="#1F1F1F"/>
</svg>
