<svg width="20" height="20" viewBox="0 0 20 20" fill="none" xmlns="http://www.w3.org/2000/svg">
<g clip-path="url(#clip0_1411_15759)">
<path fill-rule="evenodd" clip-rule="evenodd" d="M13.125 0.625V3.75C13.125 4.41304 13.3884 5.04893 13.8572 5.51777C14.3261 5.98661 14.962 6.25 15.625 6.25H19.3678C19.3725 6.31281 19.375 6.37625 19.375 6.43969V14.375C19.375 17.1366 17.1366 19.375 14.375 19.375H5.625C2.86344 19.375 0.625 17.1366 0.625 14.375V5.625C0.625 2.86344 2.86344 0.625 5.625 0.625H13.125ZM13.4375 10C13.4375 10.1658 13.3717 10.3247 13.2544 10.4419C13.1372 10.5592 12.9783 10.625 12.8125 10.625H10.625V12.8125C10.625 12.9783 10.5592 13.1372 10.4419 13.2544C10.3247 13.3717 10.1658 13.4375 10 13.4375C9.83424 13.4375 9.67527 13.3717 9.55806 13.2544C9.44085 13.1372 9.375 12.9783 9.375 12.8125V10.625H7.1875C7.02174 10.625 6.86277 10.5592 6.74556 10.4419C6.62835 10.3247 6.5625 10.1658 6.5625 10C6.5625 9.83424 6.62835 9.67527 6.74556 9.55806C6.86277 9.44085 7.02174 9.375 7.1875 9.375H9.375V7.1875C9.375 7.02174 9.44085 6.86277 9.55806 6.74556C9.67527 6.62835 9.83424 6.5625 10 6.5625C10.1658 6.5625 10.3247 6.62835 10.4419 6.74556C10.5592 6.86277 10.625 7.02174 10.625 7.1875V9.375H12.8125C12.9783 9.375 13.1372 9.44085 13.2544 9.55806C13.3717 9.67527 13.4375 9.83424 13.4375 10Z" fill="#171717"/>
<path d="M14.375 0.859375V3.7525C14.375 4.08402 14.5067 4.40196 14.7411 4.63638C14.9755 4.8708 15.2935 5.0025 15.625 5.0025H18.9188C18.8198 4.86195 18.7066 4.73199 18.5809 4.61469L15.0291 1.3C14.8357 1.11944 14.615 0.970711 14.375 0.859375Z" fill="#171717"/>
</g>
<defs>
<clipPath id="clip0_1411_15759">
<rect width="20" height="20" fill="white"/>
</clipPath>
</defs>
</svg>
