<svg width="32" height="32" viewBox="0 0 32 32" fill="none" xmlns="http://www.w3.org/2000/svg">
<rect width="32" height="32" rx="16" fill="#EFF2FA"/>
<path fill-rule="evenodd" clip-rule="evenodd" d="M15.1835 7.25C12.9944 7.25 11.2168 9.02763 11.2168 11.2167C11.2168 13.4057 12.9944 15.1833 15.1835 15.1833C17.3725 15.1833 19.1501 13.4057 19.1501 11.2167C19.1501 9.02763 17.3725 7.25 15.1835 7.25ZM15.1835 8.38333C16.7475 8.38333 18.0168 9.65267 18.0168 11.2167C18.0168 12.7807 16.7475 14.05 15.1835 14.05C13.6195 14.05 12.3501 12.7807 12.3501 11.2167C12.3501 9.65267 13.6195 8.38333 15.1835 8.38333ZM8.38346 21.9833H15.1835C15.3337 21.9833 15.4779 22.043 15.5841 22.1493C15.6904 22.2556 15.7501 22.3997 15.7501 22.55C15.7501 22.7003 15.6904 22.8444 15.5841 22.9507C15.4779 23.057 15.3337 23.1167 15.1835 23.1167H7.81679C7.6665 23.1167 7.52237 23.057 7.41609 22.9507C7.30982 22.8444 7.25012 22.7003 7.25012 22.55V21.4167C7.25012 20.0641 7.78744 18.7669 8.74388 17.8104C9.70031 16.854 10.9975 16.3167 12.3501 16.3167H15.1835C15.3337 16.3167 15.4779 16.3764 15.5841 16.4826C15.6904 16.5889 15.7501 16.733 15.7501 16.8833C15.7501 17.0336 15.6904 17.1778 15.5841 17.284C15.4779 17.3903 15.3337 17.45 15.1835 17.45H12.3501C11.2981 17.45 10.2892 17.8679 9.54527 18.6118C8.80137 19.3557 8.38346 20.3646 8.38346 21.4167V21.9833ZM20.0007 16.3167C17.9681 16.3167 16.3179 17.9668 16.3179 19.9994C16.3179 22.0321 17.9681 23.6822 20.0007 23.6822C22.0333 23.6822 23.6835 22.0321 23.6835 19.9994C23.6835 17.9668 22.0333 16.3167 20.0007 16.3167ZM20.0007 17.45C21.4077 17.45 22.5501 18.5924 22.5501 19.9994C22.5501 21.4065 21.4077 22.5489 20.0007 22.5489C18.5937 22.5489 17.4513 21.4065 17.4513 19.9994C17.4513 18.5924 18.5937 17.45 20.0007 17.45Z" fill="#373839"/>
<path fill-rule="evenodd" clip-rule="evenodd" d="M19.7647 20.0361L21.0108 18.7549C21.0625 18.7007 21.1244 18.6572 21.1929 18.6271C21.2615 18.5969 21.3353 18.5806 21.4102 18.5792C21.4851 18.5778 21.5595 18.5912 21.6292 18.6187C21.6989 18.6462 21.7624 18.6872 21.8161 18.7394C21.8698 18.7917 21.9126 18.854 21.9421 18.9228C21.9715 18.9917 21.9871 19.0657 21.9877 19.1406C21.9884 19.2155 21.9743 19.2898 21.946 19.3592C21.9178 19.4286 21.8762 19.4917 21.8234 19.5448L20.171 21.2437C20.1183 21.2982 20.0551 21.3415 19.9853 21.371C19.9155 21.4006 19.8405 21.4159 19.7647 21.4159C19.6889 21.4159 19.6139 21.4006 19.5441 21.371C19.4743 21.3415 19.4111 21.2982 19.3584 21.2437L18.1775 20.0293C18.1247 19.9762 18.0831 19.9131 18.0548 19.8437C18.0266 19.7743 18.0125 19.7 18.0131 19.6251C18.0138 19.5502 18.0293 19.4762 18.0588 19.4073C18.0883 19.3385 18.1311 19.2762 18.1848 19.2239C18.2385 19.1717 18.302 19.1307 18.3717 19.1032C18.4414 19.0757 18.5158 19.0623 18.5907 19.0637C18.6655 19.0651 18.7394 19.0814 18.808 19.1116C18.8765 19.1417 18.9384 19.1852 18.9901 19.2394L19.7647 20.0361Z" fill="#373839"/>
</svg>
