<svg width="20" height="20" viewBox="0 0 20 20" fill="none" xmlns="http://www.w3.org/2000/svg">
<path d="M3.42426 8.6964C3.42426 8.84792 3.54547 8.96913 3.69699 8.99943C3.75759 8.99943 8.15153 9.33277 9.48486 11.4237C9.57577 11.3934 9.66668 11.3934 9.75759 11.3934V3.60549C8.93941 2.72671 7.12123 1.39337 3.69699 1.51459C3.15153 1.51459 3.54547 2.06004 3.42426 8.6964ZM16.4243 8.99943C16.5758 8.99943 16.697 8.84792 16.697 8.6964V1.78731C16.697 1.6358 16.5758 1.48428 16.4243 1.48428C13 1.36307 11.1818 2.6964 10.3637 3.57519V11.3328C10.4546 11.3328 10.5455 11.3631 10.6667 11.3631C12 9.30246 16.3637 8.99943 16.4243 8.99943Z" fill="#171717"/>
<path d="M19.5151 16.7874L12.7272 14.1207L19.3333 11.4541C19.3939 11.4238 19.4545 11.3935 19.4848 11.3026C19.5151 11.2723 19.9696 10.3632 19.4545 9.6662C19.3636 9.54499 19.2424 9.51469 19.1212 9.5753L11.6969 12.4844C10.606 11.4844 9.21207 11.9389 8.5151 12.4238L0.878736 9.45408C0.757524 9.39348 0.606009 9.45408 0.545403 9.54499C0.0605542 10.242 0.5151 11.1208 0.5151 11.1814C0.545403 11.242 0.606009 11.3026 0.666615 11.3329L7.60601 14.1207L0.484797 16.9086C0.363585 16.9692 0.302979 17.0904 0.302979 17.2117C0.302979 17.6662 0.636312 18.4844 1.75752 18.4844C1.78783 18.4844 1.81813 18.4844 1.87874 18.4541L10.1818 15.1207L18.1515 18.3329C18.1818 18.3329 18.2121 18.3632 18.2727 18.3632C19.3939 18.3632 19.7272 17.5147 19.7272 17.0601C19.6969 16.9389 19.6363 16.8177 19.5151 16.7874ZM10.1818 13.1207L9.21207 12.7268C9.66662 12.5147 10.3939 12.3329 11.0606 12.7571L10.1818 13.1207Z" fill="#171717"/>
<path d="M8.90905 11.608C7.81814 10.1837 4.78783 9.66856 3.66662 9.57765C3.21208 9.54735 2.84844 9.15341 2.84844 8.69886C2.90905 6.0322 2.84844 4.39583 2.84844 3.30492C2.84844 2.82008 2.81814 2.42614 2.84844 2.0928L1.66662 2.91098C1.57571 2.97159 1.54541 3.0625 1.54541 3.15341V9.0928L8.4545 11.8201C8.57571 11.7292 8.72723 11.6686 8.90905 11.608ZM11.2424 11.5473C11.4242 11.6383 11.606 11.7292 11.7878 11.8504L18.5454 9.18371V3.15341C18.5454 3.0625 18.5151 2.97159 18.4242 2.91098L17.2727 2.0625V8.66856C17.2727 9.12311 16.909 9.51705 16.4545 9.54735C15.3636 9.63826 12.3636 10.1837 11.2424 11.5473Z" fill="#171717"/>
</svg>
