<svg width="18" height="18" viewBox="0 0 18 18" fill="none" xmlns="http://www.w3.org/2000/svg">
<path d="M1.40624 9.00021C1.40773 7.58342 1.97121 6.22508 2.97304 5.22326C3.97486 4.22143 5.3332 3.65795 6.74999 3.65646H13.7109L13.4634 3.40967C13.3849 3.33118 13.3227 3.23801 13.2802 3.13546C13.2377 3.03291 13.2159 2.92301 13.2159 2.81201C13.2159 2.70102 13.2377 2.59111 13.2802 2.48856C13.3227 2.38602 13.3849 2.29284 13.4634 2.21435C13.5419 2.13587 13.6351 2.07361 13.7376 2.03113C13.8402 1.98866 13.9501 1.9668 14.0611 1.9668C14.1721 1.9668 14.282 1.98866 14.3845 2.03113C14.4871 2.07361 14.5803 2.13587 14.6587 2.21435L16.3462 3.90185C16.4249 3.98024 16.4873 4.07339 16.5299 4.17594C16.5725 4.2785 16.5944 4.38846 16.5944 4.49951C16.5944 4.61056 16.5725 4.72052 16.5299 4.82308C16.4873 4.92564 16.4249 5.01878 16.3462 5.09717L14.6587 6.78467C14.5002 6.94317 14.2853 7.03222 14.0611 7.03222C13.8369 7.03222 13.6219 6.94317 13.4634 6.78467C13.3049 6.62616 13.2159 6.41117 13.2159 6.18701C13.2159 5.96285 13.3049 5.74786 13.4634 5.58935L13.7109 5.34396H6.74999C5.78064 5.34508 4.85131 5.73065 4.16587 6.41609C3.48043 7.10153 3.09486 8.03086 3.09374 9.00021C3.09374 9.22399 3.00485 9.4386 2.84662 9.59683C2.68838 9.75507 2.47377 9.84396 2.24999 9.84396C2.02622 9.84396 1.81161 9.75507 1.65337 9.59683C1.49514 9.4386 1.40624 9.22399 1.40624 9.00021ZM15.75 8.15646C15.5262 8.15646 15.3116 8.24536 15.1534 8.40359C14.9951 8.56183 14.9062 8.77644 14.9062 9.00021C14.9051 9.96957 14.5196 10.8989 13.8341 11.5843C13.1487 12.2698 12.2193 12.6553 11.25 12.6565H4.28906L4.53656 12.4097C4.61504 12.3312 4.6773 12.238 4.71978 12.1355C4.76225 12.0329 4.78411 11.923 4.78411 11.812C4.78411 11.701 4.76225 11.5911 4.71978 11.4886C4.6773 11.386 4.61504 11.2928 4.53656 11.2144C4.45807 11.1359 4.3649 11.0736 4.26235 11.0311C4.1598 10.9887 4.0499 10.9668 3.9389 10.9668C3.82791 10.9668 3.718 10.9887 3.61545 11.0311C3.5129 11.0736 3.41973 11.1359 3.34124 11.2144L1.65374 12.9019C1.57508 12.9802 1.51267 13.0734 1.47009 13.1759C1.4275 13.2785 1.40558 13.3885 1.40558 13.4995C1.40558 13.6106 1.4275 13.7205 1.47009 13.8231C1.51267 13.9256 1.57508 14.0188 1.65374 14.0972L3.34124 15.7847C3.41973 15.8632 3.5129 15.9254 3.61545 15.9679C3.718 16.0104 3.82791 16.0322 3.9389 16.0322C4.0499 16.0322 4.1598 16.0104 4.26235 15.9679C4.3649 15.9254 4.45807 15.8632 4.53656 15.7847C4.61504 15.7062 4.6773 15.613 4.71978 15.5105C4.76225 15.4079 4.78411 15.298 4.78411 15.187C4.78411 15.076 4.76225 14.9661 4.71978 14.8636C4.6773 14.761 4.61504 14.6678 4.53656 14.5894L4.28906 14.344H11.25C12.6668 14.3425 14.0251 13.779 15.027 12.7772C16.0288 11.7753 16.5923 10.417 16.5937 9.00021C16.5937 8.77644 16.5048 8.56183 16.3466 8.40359C16.1884 8.24536 15.9738 8.15646 15.75 8.15646Z" fill="#94A3B8"/>
</svg>
