<svg width="18" height="18" viewBox="0 0 18 18" fill="none" xmlns="http://www.w3.org/2000/svg">
<path fill-rule="evenodd" clip-rule="evenodd" d="M12.6383 12.1097L13.945 13.4167L13.765 13.5977C13.7025 13.6602 13.6675 13.745 13.6675 13.8333C13.6675 13.9217 13.7025 14.0065 13.765 14.069C13.765 14.069 15.1967 15.5005 15.925 16.2298C16.0979 16.4025 16.3323 16.4997 16.5767 16.5C16.8217 16.5 17.0567 16.4023 17.23 16.2295C17.4033 16.0565 17.5 15.822 17.5 15.5773C17.5 15.3327 17.4033 15.0982 17.23 14.9252C16.5 14.1958 15.0683 12.7643 15.0683 12.7643C15.0375 12.7334 15.0009 12.7088 14.9606 12.6921C14.9202 12.6753 14.877 12.6667 14.8333 12.6667C14.7897 12.6667 14.7464 12.6753 14.7061 12.6921C14.6658 12.7088 14.6291 12.7334 14.5983 12.7643L14.4167 12.9453L13.11 11.6382C14.18 10.455 14.8333 8.8865 14.8333 7.16667C14.8333 3.48717 11.8467 0.5 8.16667 0.5C4.48667 0.5 1.5 3.48717 1.5 7.16667C1.5 10.8462 4.48667 13.8333 8.16667 13.8333C9.88667 13.8333 11.455 13.1807 12.6383 12.1097ZM16.7583 15.7582C16.71 15.8062 16.645 15.8333 16.5767 15.8333C16.51 15.8333 16.445 15.8063 16.3967 15.7585L14.4717 13.8333L14.8333 13.4713L16.7583 15.3965C16.8067 15.4445 16.8333 15.5095 16.8333 15.5773C16.8333 15.6452 16.8067 15.7102 16.7583 15.7582ZM8.16667 1.16667C11.4783 1.16667 14.1667 3.85517 14.1667 7.16667C14.1667 10.4782 11.4783 13.1667 8.16667 13.1667C4.855 13.1667 2.16667 10.4782 2.16667 7.16667C2.16667 3.85517 4.855 1.16667 8.16667 1.16667ZM6.485 7.551C6.46139 7.48714 6.41878 7.43204 6.36291 7.39312C6.30704 7.35421 6.24059 7.33335 6.1725 7.33335C6.10441 7.33335 6.03796 7.35421 5.98209 7.39312C5.92622 7.43204 5.88361 7.48714 5.86 7.551L5.46333 8.62383L4.39 9.02067C4.32588 9.04407 4.2705 9.08661 4.23137 9.14254C4.19225 9.19847 4.17126 9.26508 4.17126 9.33333C4.17126 9.40159 4.19225 9.4682 4.23137 9.52413C4.2705 9.58006 4.32588 9.6226 4.39 9.646L5.46333 10.0428L5.86 11.1157C5.88361 11.1795 5.92622 11.2346 5.98209 11.2735C6.03796 11.3125 6.10441 11.3333 6.1725 11.3333C6.24059 11.3333 6.30704 11.3125 6.36291 11.2735C6.41878 11.2346 6.46139 11.1795 6.485 11.1157L6.88167 10.0428L7.955 9.646C8.01876 9.62224 8.07373 9.57956 8.11255 9.52368C8.15136 9.46779 8.17216 9.40138 8.17216 9.33333C8.17216 9.26529 8.15136 9.19888 8.11255 9.14299C8.07373 9.08711 8.01876 9.04442 7.955 9.02067L6.88167 8.62383L6.485 7.551ZM6.17167 8.62717L6.31 8.99883C6.34333 9.09017 6.415 9.162 6.50667 9.19583L6.87833 9.33333L6.50667 9.47083C6.415 9.50467 6.34333 9.5765 6.31 9.66783L6.17167 10.0395L6.035 9.66783C6.01826 9.62282 5.99203 9.58193 5.9581 9.54794C5.92416 9.51395 5.88332 9.48765 5.83833 9.47083L5.46667 9.33333L5.83833 9.19583C5.88332 9.17901 5.92416 9.15272 5.9581 9.11873C5.99203 9.08474 6.01826 9.04385 6.035 8.99883L6.17167 8.62717ZM9.48 3.21767C9.43167 3.08683 9.30667 3 9.16667 3C9.02667 3 8.90167 3.08683 8.85333 3.21767L8.05167 5.38533L5.885 6.18733C5.82088 6.21073 5.7655 6.25328 5.72637 6.30921C5.68725 6.36514 5.66626 6.43174 5.66626 6.5C5.66626 6.56826 5.68725 6.63486 5.72637 6.69079C5.7655 6.74672 5.82088 6.78927 5.885 6.81267L8.05167 7.61467L8.85333 9.78233C8.90167 9.91317 9.02667 10 9.16667 10C9.30667 10 9.43167 9.91317 9.48 9.78233L10.2817 7.61467L12.4483 6.81267C12.5125 6.78927 12.5678 6.74672 12.607 6.69079C12.6461 6.63486 12.6671 6.56826 12.6671 6.5C12.6671 6.43174 12.6461 6.36514 12.607 6.30921C12.5678 6.25328 12.5125 6.21073 12.4483 6.18733L10.2817 5.38533L9.48 3.21767ZM9.16667 4.29383L9.71 5.76033C9.74333 5.85167 9.815 5.9235 9.90667 5.95733L11.3733 6.5L9.90667 7.04267C9.815 7.0765 9.74333 7.14833 9.71 7.23967L9.16667 8.70617L8.62333 7.23967C8.59 7.14833 8.51833 7.0765 8.42667 7.04267L6.96 6.5L8.42667 5.95733C8.51833 5.9235 8.59 5.85167 8.62333 5.76033L9.16667 4.29383ZM5.83333 4.16667H5.5C5.31667 4.16667 5.16667 4.316 5.16667 4.5C5.16667 4.684 5.31667 4.83333 5.5 4.83333H5.83333V5.16667C5.83333 5.35067 5.98333 5.5 6.16667 5.5C6.35 5.5 6.5 5.35067 6.5 5.16667V4.83333H6.83333C7.01667 4.83333 7.16667 4.684 7.16667 4.5C7.16667 4.316 7.01667 4.16667 6.83333 4.16667H6.5V3.83333C6.5 3.64933 6.35 3.5 6.16667 3.5C5.98333 3.5 5.83333 3.64933 5.83333 3.83333V4.16667Z" fill="#FF2626"/>
</svg>
