<svg width="14" height="15" viewBox="0 0 14 15" fill="none" xmlns="http://www.w3.org/2000/svg">
<path d="M8.74992 10.8503H11.6666L10.847 10.0307C10.6248 9.80846 10.4999 9.50701 10.4999 9.19269V7.35026C10.4999 5.82634 9.52598 4.5299 8.16659 4.04942V3.85026C8.16659 3.20593 7.64425 2.68359 6.99992 2.68359C6.35559 2.68359 5.83325 3.20593 5.83325 3.85026V4.04942C4.47386 4.5299 3.49992 5.82634 3.49992 7.35026V9.19269C3.49992 9.50701 3.37506 9.80846 3.1528 10.0307L2.33325 10.8503H5.24992M8.74992 10.8503V11.4336C8.74992 12.4001 7.96642 13.1836 6.99992 13.1836C6.03342 13.1836 5.24992 12.4001 5.24992 11.4336V10.8503M8.74992 10.8503H5.24992" stroke="#64748B" stroke-linecap="round" stroke-linejoin="round"/>
</svg>
