<svg width="16" height="16" viewBox="0 0 16 16" fill="none" xmlns="http://www.w3.org/2000/svg">
<path fill-rule="evenodd" clip-rule="evenodd" d="M13.9662 0.0581095L0.768311 4.45742C0.559528 4.5273 0.375824 4.65688 0.239942 4.83011C0.104061 5.00335 0.0219678 5.21263 0.00382764 5.43205C-0.0143126 5.65146 0.0322965 5.87139 0.137884 6.06458C0.243472 6.25778 0.403402 6.41577 0.597873 6.51898L6.04456 9.40236L8.9285 14.8496C9.03159 15.0443 9.18957 15.2044 9.38284 15.3101C9.57611 15.4158 9.79616 15.4625 10.0157 15.4443C10.2352 15.4261 10.4446 15.3438 10.6178 15.2077C10.791 15.0716 10.9205 14.8876 10.9901 14.6786L15.3894 1.48123C15.4557 1.283 15.4655 1.07019 15.4176 0.86672C15.3696 0.663245 15.266 0.477154 15.1181 0.32934C14.9703 0.181527 14.7842 0.0778438 14.5808 0.0299325C14.3773 -0.0179788 14.1645 -0.00822118 13.9662 0.0581095ZM7.15269 9.09017L9.92244 14.3231L14.3217 1.12517L1.12437 5.52448L6.35675 8.2948L8.8475 5.80405C8.95305 5.69857 9.09617 5.63935 9.24538 5.6394C9.3946 5.63945 9.53768 5.69878 9.64315 5.80433C9.74863 5.90988 9.80785 6.053 9.8078 6.20222C9.80775 6.35143 9.74842 6.49451 9.64287 6.59998L7.15269 9.09017Z" fill="#919191"/>
</svg>
