<svg width="16" height="16" viewBox="0 0 16 16" fill="none" xmlns="http://www.w3.org/2000/svg">
<path fill-rule="evenodd" clip-rule="evenodd" d="M11.1383 11.6097L12.445 12.9167L12.265 13.0977C12.2025 13.1602 12.1675 13.245 12.1675 13.3333C12.1675 13.4217 12.2025 13.5065 12.265 13.569C12.265 13.569 13.6967 15.0005 14.425 15.7298C14.5979 15.9025 14.8323 15.9997 15.0767 16C15.3217 16 15.5567 15.9023 15.73 15.7295C15.9033 15.5565 16 15.322 16 15.0773C16 14.8327 15.9033 14.5982 15.73 14.4252C15 13.6958 13.5683 12.2643 13.5683 12.2643C13.5375 12.2334 13.5009 12.2088 13.4606 12.1921C13.4202 12.1753 13.377 12.1667 13.3333 12.1667C13.2897 12.1667 13.2464 12.1753 13.2061 12.1921C13.1658 12.2088 13.1291 12.2334 13.0983 12.2643L12.9167 12.4453L11.61 11.1382C12.68 9.955 13.3333 8.3865 13.3333 6.66667C13.3333 2.98717 10.3467 0 6.66667 0C2.98667 0 0 2.98717 0 6.66667C0 10.3462 2.98667 13.3333 6.66667 13.3333C8.38667 13.3333 9.955 12.6807 11.1383 11.6097ZM15.2583 15.2582C15.21 15.3062 15.145 15.3333 15.0767 15.3333C15.01 15.3333 14.945 15.3063 14.8967 15.2585L12.9717 13.3333L13.3333 12.9713L15.2583 14.8965C15.3067 14.9445 15.3333 15.0095 15.3333 15.0773C15.3333 15.1452 15.3067 15.2102 15.2583 15.2582ZM6.66667 0.666667C9.97833 0.666667 12.6667 3.35517 12.6667 6.66667C12.6667 9.97817 9.97833 12.6667 6.66667 12.6667C3.355 12.6667 0.666667 9.97817 0.666667 6.66667C0.666667 3.35517 3.355 0.666667 6.66667 0.666667ZM4.985 7.051C4.96139 6.98714 4.91878 6.93204 4.86291 6.89312C4.80704 6.85421 4.74059 6.83335 4.6725 6.83335C4.60441 6.83335 4.53796 6.85421 4.48209 6.89312C4.42622 6.93204 4.38361 6.98714 4.36 7.051L3.96333 8.12383L2.89 8.52067C2.82588 8.54407 2.7705 8.58661 2.73137 8.64254C2.69225 8.69847 2.67126 8.76508 2.67126 8.83333C2.67126 8.90159 2.69225 8.9682 2.73137 9.02413C2.7705 9.08006 2.82588 9.1226 2.89 9.146L3.96333 9.54283L4.36 10.6157C4.38361 10.6795 4.42622 10.7346 4.48209 10.7735C4.53796 10.8125 4.60441 10.8333 4.6725 10.8333C4.74059 10.8333 4.80704 10.8125 4.86291 10.7735C4.91878 10.7346 4.96139 10.6795 4.985 10.6157L5.38167 9.54283L6.455 9.146C6.51876 9.12224 6.57373 9.07956 6.61255 9.02368C6.65136 8.96779 6.67216 8.90138 6.67216 8.83333C6.67216 8.76529 6.65136 8.69888 6.61255 8.64299C6.57373 8.58711 6.51876 8.54442 6.455 8.52067L5.38167 8.12383L4.985 7.051ZM4.67167 8.12717L4.81 8.49883C4.84333 8.59017 4.915 8.662 5.00667 8.69583L5.37833 8.83333L5.00667 8.97083C4.915 9.00467 4.84333 9.0765 4.81 9.16783L4.67167 9.5395L4.535 9.16783C4.51826 9.12282 4.49203 9.08193 4.4581 9.04794C4.42416 9.01395 4.38332 8.98765 4.33833 8.97083L3.96667 8.83333L4.33833 8.69583C4.38332 8.67901 4.42416 8.65272 4.4581 8.61873C4.49203 8.58474 4.51826 8.54385 4.535 8.49883L4.67167 8.12717ZM7.98 2.71767C7.93167 2.58683 7.80667 2.5 7.66667 2.5C7.52667 2.5 7.40167 2.58683 7.35333 2.71767L6.55167 4.88533L4.385 5.68733C4.32088 5.71073 4.2655 5.75328 4.22637 5.80921C4.18725 5.86514 4.16626 5.93174 4.16626 6C4.16626 6.06826 4.18725 6.13486 4.22637 6.19079C4.2655 6.24672 4.32088 6.28927 4.385 6.31267L6.55167 7.11467L7.35333 9.28233C7.40167 9.41317 7.52667 9.5 7.66667 9.5C7.80667 9.5 7.93167 9.41317 7.98 9.28233L8.78167 7.11467L10.9483 6.31267C11.0125 6.28927 11.0678 6.24672 11.107 6.19079C11.1461 6.13486 11.1671 6.06826 11.1671 6C11.1671 5.93174 11.1461 5.86514 11.107 5.80921C11.0678 5.75328 11.0125 5.71073 10.9483 5.68733L8.78167 4.88533L7.98 2.71767ZM7.66667 3.79383L8.21 5.26033C8.24333 5.35167 8.315 5.4235 8.40667 5.45733L9.87333 6L8.40667 6.54267C8.315 6.5765 8.24333 6.64833 8.21 6.73967L7.66667 8.20617L7.12333 6.73967C7.09 6.64833 7.01833 6.5765 6.92667 6.54267L5.46 6L6.92667 5.45733C7.01833 5.4235 7.09 5.35167 7.12333 5.26033L7.66667 3.79383ZM4.33333 3.66667H4C3.81667 3.66667 3.66667 3.816 3.66667 4C3.66667 4.184 3.81667 4.33333 4 4.33333H4.33333V4.66667C4.33333 4.85067 4.48333 5 4.66667 5C4.85 5 5 4.85067 5 4.66667V4.33333H5.33333C5.51667 4.33333 5.66667 4.184 5.66667 4C5.66667 3.816 5.51667 3.66667 5.33333 3.66667H5V3.33333C5 3.14933 4.85 3 4.66667 3C4.48333 3 4.33333 3.14933 4.33333 3.33333V3.66667Z" fill="#11AD24"/>
</svg>
