<svg width="24" height="24" viewBox="0 0 24 24" fill="none" xmlns="http://www.w3.org/2000/svg">
<path d="M13.4213 20.7113C13.8813 20.6103 14.3326 20.4736 14.7713 20.3025C14.5264 20.1782 14.2952 20.0286 14.0813 19.8563C13.8882 20.161 13.6672 20.4472 13.4213 20.7113ZM11.8013 1.51125C11.6288 1.50375 11.4563 1.5 11.2838 1.5C11.1113 1.5 10.9388 1.50375 10.7663 1.51125C10.2759 1.69364 9.84692 2.01081 9.52881 2.42625C8.59881 3.54 7.85631 5.49 7.48881 7.84125H15.0788C14.7113 5.48625 13.9688 3.5325 13.0388 2.4225C12.7195 2.00914 12.2908 1.69347 11.8013 1.51125ZM13.4213 1.74C13.7036 2.04196 13.9537 2.37249 14.1676 2.72625C15.0555 4.30519 15.625 6.04302 15.8438 7.84125H20.4038C19.8374 6.32486 18.9026 4.97322 17.6837 3.90813C16.4647 2.84303 15 2.09794 13.4213 1.74ZM19.4963 13.8075C19.596 13.9057 19.6899 14.0097 19.7776 14.1188C19.9766 14.3632 20.1464 14.63 20.2838 14.9137C20.7656 13.7433 21.0128 12.4895 21.0113 11.2238C21.0123 10.3334 20.8886 9.4473 20.6438 8.59125H15.9451C16.0444 9.46521 16.0932 10.3442 16.0913 11.2238C16.0913 11.715 16.0763 12.195 16.0463 12.6637C16.6707 12.5727 17.3077 12.6287 17.9067 12.8273C18.5056 13.0259 19.0499 13.3615 19.4963 13.8075ZM7.48881 14.61C7.85631 16.9612 8.59881 18.9113 9.52881 20.025C9.84691 20.4405 10.2759 20.7576 10.7663 20.94C10.9388 20.9475 11.1113 20.9513 11.2838 20.9513C11.4563 20.9513 11.6288 20.9475 11.8013 20.94C12.2908 20.7578 12.7195 20.4421 13.0388 20.0287C13.2218 19.8069 13.3873 19.5712 13.5338 19.3237C12.9838 18.6782 12.6488 17.8772 12.5755 17.0322C12.5023 16.1873 12.6944 15.3406 13.1251 14.61H7.48881ZM2.17131 14.61C2.73615 16.126 3.66952 17.4776 4.88722 18.5427C6.10491 19.6079 7.56863 20.3531 9.14631 20.7113C8.8664 20.4069 8.61766 20.0752 8.40381 19.7213C7.51284 18.1447 6.94192 16.4077 6.72381 14.61H2.17131ZM1.56006 11.2238C1.55911 12.1153 1.6828 13.0027 1.92756 13.86H6.62256C6.42759 12.1092 6.42759 10.3421 6.62256 8.59125H1.92756C1.68281 9.4473 1.55911 10.3334 1.56006 11.2238ZM6.72381 7.84125C6.94198 6.04236 7.51288 4.30418 8.40381 2.72625C8.61765 2.37346 8.8664 2.04305 9.14631 1.74C7.56789 2.09743 6.10335 2.84239 4.88494 3.90759C3.66653 4.9728 2.73263 6.32471 2.16756 7.84125H6.72381ZM7.22631 11.2238C7.22641 12.1048 7.279 12.9852 7.38381 13.86H13.6988C13.714 13.8416 13.7303 13.824 13.7476 13.8075C14.1806 13.3768 14.7047 13.0487 15.2813 12.8475C15.3226 12.3187 15.3413 11.775 15.3413 11.2238C15.3413 10.3439 15.2887 9.46483 15.1838 8.59125H7.38381C7.27889 9.46483 7.22629 10.3439 7.22631 11.2238Z" fill="#1F1F1F"/>
<path d="M22.0575 20.2633L20.6963 18.902C20.6616 18.8673 20.6204 18.8397 20.575 18.8209C20.5297 18.8021 20.481 18.7924 20.4319 18.7924C20.3828 18.7924 20.3342 18.8021 20.2888 18.8209C20.2434 18.8397 20.2022 18.8673 20.1675 18.902L19.7708 19.2988L19.2165 18.7442C19.7435 18.0818 19.997 17.2429 19.9251 16.3996C19.8532 15.5563 19.4614 14.7724 18.8299 14.2088C18.1985 13.6452 17.3753 13.3445 16.5293 13.3685C15.6832 13.3925 14.8784 13.7393 14.2799 14.3378C13.6815 14.9363 13.3346 15.7411 13.3107 16.5871C13.2867 17.4332 13.5873 18.2563 14.1509 18.8878C14.7145 19.5192 15.4984 19.9111 16.3417 19.983C17.1851 20.0549 18.0239 19.8013 18.6863 19.2744L19.2405 19.829L18.8438 20.2258C18.809 20.2605 18.7815 20.3017 18.7626 20.347C18.7438 20.3924 18.7341 20.441 18.7341 20.4902C18.7341 20.5393 18.7438 20.5879 18.7626 20.6333C18.7815 20.6786 18.809 20.7198 18.8438 20.7545L20.205 22.1158C20.4507 22.3614 20.7839 22.4994 21.1313 22.4994C21.4787 22.4994 21.8119 22.3614 22.0575 22.1158C22.3032 21.8701 22.4412 21.5369 22.4412 21.1895C22.4412 20.8421 22.3032 20.5089 22.0575 20.2633ZM18.4373 18.4952C18.0785 18.8539 17.6214 19.0982 17.1238 19.1972C16.6261 19.2962 16.1103 19.2453 15.6416 19.0512C15.1728 18.857 14.7722 18.5282 14.4903 18.1063C14.2084 17.6844 14.058 17.1885 14.058 16.6811C14.058 16.1737 14.2084 15.6777 14.4903 15.2559C14.7722 14.834 15.1728 14.5052 15.6416 14.311C16.1103 14.1168 16.6261 14.066 17.1238 14.165C17.6214 14.264 18.0785 14.5083 18.4373 14.867C18.9174 15.3487 19.187 16.001 19.187 16.6811C19.187 17.3612 18.9174 18.0135 18.4373 18.4952Z" fill="#1F1F1F"/>
</svg>
