<svg width="14" height="15" viewBox="0 0 14 15" fill="none" xmlns="http://www.w3.org/2000/svg">
<path fill-rule="evenodd" clip-rule="evenodd" d="M4.10369 5.05559L6.43469 2.38392C6.50511 2.30322 6.59199 2.23854 6.68948 2.19421C6.78698 2.14989 6.89284 2.12695 6.99994 2.12695C7.10705 2.12695 7.2129 2.14989 7.3104 2.19421C7.4079 2.23854 7.49478 2.30322 7.56519 2.38392L9.89619 5.05559L12.1204 3.65092C12.2425 3.5742 12.3841 3.53425 12.5283 3.53585C12.6725 3.53746 12.8132 3.58055 12.9335 3.65998C13.0538 3.73941 13.1488 3.85181 13.2069 3.98375C13.2651 4.11569 13.284 4.26159 13.2614 4.40401L12.2044 11.0085C12.1646 11.258 12.0372 11.4852 11.8449 11.6492C11.6527 11.8132 11.4083 11.9033 11.1556 11.9033H2.84428C2.32278 11.9033 1.87769 11.5242 1.79544 11.0085L0.738444 4.40401C0.715625 4.26153 0.734383 4.11549 0.79247 3.9834C0.850558 3.85131 0.945508 3.73877 1.06594 3.65929C1.18637 3.5798 1.32717 3.53673 1.47146 3.53525C1.61575 3.53377 1.7574 3.57393 1.87944 3.65092L4.10369 5.05559ZM1.64611 4.53876L2.65936 10.8703C2.66631 10.9143 2.68875 10.9544 2.72265 10.9834C2.75655 11.0124 2.79968 11.0283 2.84428 11.0283H11.1556C11.2002 11.0283 11.2433 11.0124 11.2772 10.9834C11.3111 10.9544 11.3336 10.9143 11.3405 10.8703L12.3538 4.53876L10.273 5.85242C10.1217 5.94799 9.94118 5.98634 9.76406 5.96057C9.58694 5.93479 9.42485 5.84658 9.30703 5.71184L6.99994 3.06701L4.69286 5.71184C4.44961 5.99009 4.03953 6.05017 3.72686 5.85242L1.64611 4.53876Z" fill="#64748B"/>
<path fill-rule="evenodd" clip-rule="evenodd" d="M11.6883 8.83984C11.8043 8.83984 11.9156 8.88594 11.9976 8.96798C12.0797 9.05003 12.1258 9.16131 12.1258 9.27734C12.1258 9.39338 12.0797 9.50466 11.9976 9.5867C11.9156 9.66875 11.8043 9.71484 11.6883 9.71484H2.31177C2.19574 9.71484 2.08446 9.66875 2.00241 9.5867C1.92036 9.50466 1.87427 9.39338 1.87427 9.27734C1.87427 9.16131 1.92036 9.05003 2.00241 8.96798C2.08446 8.88594 2.19574 8.83984 2.31177 8.83984H11.6883Z" fill="#64748B"/>
</svg>
