<svg width="24" height="24" viewBox="0 0 24 24" fill="none" xmlns="http://www.w3.org/2000/svg">
<path d="M3.6001 17.644C3.6041 17.636 3.6081 17.632 3.6161 17.624C4.1561 17.092 4.8561 16.8 5.6001 16.8H6.4001V2.40002H6.0001C4.6761 2.40002 3.6001 3.47602 3.6001 4.80002V17.644ZM19.2001 2.40002H7.2001V16.8H20.0001C20.1401 16.8 20.2761 16.828 20.4001 16.872V3.60002C20.4001 2.94002 19.8601 2.40002 19.2001 2.40002ZM13.2001 3.82002C13.2001 3.60002 13.3801 3.42002 13.6001 3.42002C14.9241 3.42002 16.0001 4.49602 16.0001 5.82002C16.0001 6.04002 15.8201 6.22002 15.6001 6.22002H13.6001C13.3801 6.22002 13.2001 6.04002 13.2001 5.82002V3.82002ZM11.2001 15.42C11.2001 15.64 11.0201 15.82 10.8001 15.82H9.2001C8.9801 15.82 8.8001 15.64 8.8001 15.42V13.02C8.8001 12.8 8.9801 12.62 9.2001 12.62H10.8001C11.0201 12.62 11.2001 12.8 11.2001 13.02V15.42ZM14.4001 15.42C14.4001 15.64 14.2201 15.82 14.0001 15.82H12.4001C12.1801 15.82 12.0001 15.64 12.0001 15.42V11.82C12.0001 11.6 12.1801 11.42 12.4001 11.42H14.0001C14.2201 11.42 14.4001 11.6 14.4001 11.82V15.42ZM12.4001 9.42002C11.0761 9.42002 10.0001 8.34402 10.0001 7.02002C10.0001 5.69602 11.0761 4.62002 12.4001 4.62002C12.6201 4.62002 12.8001 4.80002 12.8001 5.02002V6.62002H14.4001C14.6201 6.62002 14.8001 6.80002 14.8001 7.02002C14.8001 8.34402 13.7241 9.42002 12.4001 9.42002ZM17.6001 15.42C17.6001 15.64 17.4201 15.82 17.2001 15.82H15.6001C15.3801 15.82 15.2001 15.64 15.2001 15.42V10.22C15.2001 10 15.3801 9.82002 15.6001 9.82002H17.2001C17.4201 9.82002 17.6001 10 17.6001 10.22V15.42ZM20.0001 17.6H5.6001C5.0721 17.6 4.5681 17.808 4.1841 18.188C3.8321 18.544 3.6241 19.012 3.6041 19.504C3.5761 20.032 3.7721 20.54 4.1481 20.936C4.34722 21.1453 4.58671 21.312 4.85209 21.4262C5.11746 21.5403 5.40322 21.5994 5.6921 21.6H20.0001C20.2201 21.6 20.4001 21.42 20.4001 21.2V20H8.0001C7.7801 20 7.6001 19.82 7.6001 19.6C7.6001 19.38 7.7801 19.2 8.0001 19.2H20.4001V18C20.4001 17.78 20.2201 17.6 20.0001 17.6Z" fill="#1F1F1F"/>
</svg>
