<svg width="24" height="24" viewBox="0 0 24 24" fill="none" xmlns="http://www.w3.org/2000/svg">
<path d="M11.9999 12.9999C12.5522 12.9999 12.9999 12.5522 12.9999 11.9999C12.9999 11.4476 12.5522 10.9999 11.9999 10.9999C11.4476 10.9999 10.9999 11.4476 10.9999 11.9999C10.9999 12.5522 11.4476 12.9999 11.9999 12.9999Z" stroke="#171717" stroke-width="2" stroke-linecap="round" stroke-linejoin="round"/>
<path d="M11.9999 6.00012C12.5522 6.00012 12.9999 5.55241 12.9999 5.00012C12.9999 4.44784 12.5522 4.00012 11.9999 4.00012C11.4476 4.00012 10.9999 4.44784 10.9999 5.00012C10.9999 5.55241 11.4476 6.00012 11.9999 6.00012Z" stroke="#171717" stroke-width="2" stroke-linecap="round" stroke-linejoin="round"/>
<path d="M11.9999 20C12.5522 20 12.9999 19.5523 12.9999 19C12.9999 18.4477 12.5522 18 11.9999 18C11.4476 18 10.9999 18.4477 10.9999 19C10.9999 19.5523 11.4476 20 11.9999 20Z" stroke="#171717" stroke-width="2" stroke-linecap="round" stroke-linejoin="round"/>
</svg>
