<svg width="24" height="23" viewBox="0 0 24 23" fill="none" xmlns="http://www.w3.org/2000/svg">
<path d="M11.9531 0C5.36203 0 0 4.731 0 10.5469C0 13.0037 0.972281 15.3843 2.74177 17.2712C3.09197 18.7152 2.66691 20.245 1.61222 21.2997C1.17122 21.7408 1.48308 22.5 2.10938 22.5C4.113 22.5 6.04453 21.7152 7.47961 20.3309C8.89959 20.8376 10.402 21.0938 11.9531 21.0938C18.5442 21.0938 24 16.3627 24 10.5469C24 4.731 18.5442 0 11.9531 0ZM6.42188 12.6562C5.25872 12.6562 4.3125 11.71 4.3125 10.5469C4.3125 9.38372 5.25872 8.4375 6.42188 8.4375C7.58503 8.4375 8.53125 9.38372 8.53125 10.5469C8.53125 11.71 7.58503 12.6562 6.42188 12.6562ZM12.0469 12.6562C10.8837 12.6562 9.9375 11.71 9.9375 10.5469C9.9375 9.38372 10.8837 8.4375 12.0469 8.4375C13.21 8.4375 14.1562 9.38372 14.1562 10.5469C14.1562 11.71 13.21 12.6562 12.0469 12.6562ZM17.6719 12.6562C16.5087 12.6562 15.5625 11.71 15.5625 10.5469C15.5625 9.38372 16.5087 8.4375 17.6719 8.4375C18.835 8.4375 19.7812 9.38372 19.7812 10.5469C19.7812 11.71 18.835 12.6562 17.6719 12.6562Z" fill="#1F1F1F"/>
</svg>
