<svg width="45" height="27" viewBox="0 0 45 27" fill="none" xmlns="http://www.w3.org/2000/svg">
<g clip-path="url(#clip0_1482_6579)">
<path d="M40.406 0.421875H4.17985C2.12784 0.421875 0.464355 1.93291 0.464355 3.79688V23.2031C0.464355 25.0671 2.12784 26.5781 4.17985 26.5781H40.406C42.458 26.5781 44.1215 25.0671 44.1215 23.2031V3.79688C44.1215 1.93291 42.458 0.421875 40.406 0.421875Z" fill="white" stroke="black" stroke-opacity="0.2" stroke-width="0.8125"/>
<path d="M5.17883 9.98061C4.20696 9.49642 3.09779 9.107 1.85767 8.83675L1.90968 8.6263H6.9943C7.6835 8.64824 8.24273 8.8366 8.42471 9.50183L9.52974 14.2874L9.86825 15.7287L12.9632 8.6263H16.305L11.3375 19.0308H7.99561L5.17883 9.98061ZM18.7631 19.0419H15.6028L17.5795 8.6263H20.7396L18.7631 19.0419ZM30.2195 8.88093L29.7897 11.1301L29.5039 11.0194C28.932 10.8089 28.1772 10.5984 27.1498 10.6206C25.902 10.6206 25.3425 11.0747 25.3295 11.518C25.3295 12.0056 26.0064 12.3269 27.1118 12.8035C28.9326 13.5459 29.7771 14.4544 29.7645 15.6401C29.7389 17.8008 27.5801 19.1971 24.2641 19.1971C22.8463 19.1859 21.4807 18.9305 20.7395 18.6428L21.1817 16.3047L21.5979 16.4711C22.6253 16.8593 23.3013 17.0251 24.563 17.0251C25.4729 17.0251 26.4485 16.7035 26.4609 16.0057C26.4609 15.5514 26.0453 15.2187 24.8226 14.709C23.6264 14.2102 22.027 13.3793 22.0529 11.8833C22.0664 9.85572 24.2641 8.4375 27.385 8.4375C28.6075 8.4375 29.5962 8.67019 30.2195 8.88093ZM34.4198 15.352H37.0467C36.9167 14.8313 36.3182 12.3381 36.3182 12.3381L36.0974 11.4406C35.9413 11.8284 35.6684 12.4601 35.6816 12.4378C35.6816 12.4378 34.6801 14.7536 34.4198 15.352ZM38.3208 8.6263L40.8704 19.0417H37.9443C37.9443 19.0417 37.6579 17.845 37.5672 17.4793H33.5096C33.3923 17.7562 32.8463 19.0417 32.8463 19.0417H29.5303L34.2246 9.49049C34.5498 8.81451 35.1225 8.6263 35.8763 8.6263H38.3208Z" fill="#171E6C"/>
</g>
<defs>
<clipPath id="clip0_1482_6579">
<rect width="44.586" height="27" fill="white"/>
</clipPath>
</defs>
</svg>
